<svg width="18" height="18" viewBox="0 0 18 18" fill="none" xmlns="http://www.w3.org/2000/svg">
<path fill-rule="evenodd" clip-rule="evenodd" d="M10.9988 2.61386L17.6067 13.1584C17.8247 13.4329 17.9085 13.8341 17.982 14.1864C17.988 14.2154 17.994 14.2441 18 14.2723C18 14.8663 17.764 15.3861 17.292 15.8317C16.8987 16.2772 16.2694 16.5 15.64 16.5H2.26697C1.87365 16.5 1.48032 16.4257 1.16566 16.203C0.0643469 15.6089 -0.328979 14.198 0.300342 13.1584L6.90821 2.5396C7.06555 2.24257 7.38021 1.94554 7.69487 1.79703C8.24552 1.5 8.87484 1.42574 9.50416 1.57426C10.1335 1.72277 10.6841 2.09406 10.9988 2.61386ZM15.6401 15.0148C15.7974 15.0148 16.0334 14.9406 16.1907 14.7921C16.2078 14.7599 16.2286 14.7276 16.2498 14.6946C16.3265 14.5756 16.4096 14.4467 16.348 14.2723C16.348 14.1238 16.348 13.9752 16.2694 13.901L9.58284 3.43069C9.34685 3.13366 8.87486 2.98515 8.48153 3.20792C8.42909 3.20792 8.37665 3.27393 8.3242 3.33993C8.29798 3.37294 8.27176 3.40594 8.24554 3.43069L1.559 13.901C1.40167 14.2723 1.48033 14.7178 1.87366 14.9406C2.03099 15.0149 2.10965 15.0148 2.26699 15.0148H15.6401Z" fill="#BDBDBD"/>
<mask id="mask0" mask-type="alpha" maskUnits="userSpaceOnUse" x="0" y="1" width="18" height="16">
<path fill-rule="evenodd" clip-rule="evenodd" d="M10.9988 2.61386L17.6067 13.1584C17.8247 13.4329 17.9085 13.8341 17.982 14.1864C17.988 14.2154 17.994 14.2441 18 14.2723C18 14.8663 17.764 15.3861 17.292 15.8317C16.8987 16.2772 16.2694 16.5 15.64 16.5H2.26697C1.87365 16.5 1.48032 16.4257 1.16566 16.203C0.0643469 15.6089 -0.328979 14.198 0.300342 13.1584L6.90821 2.5396C7.06555 2.24257 7.38021 1.94554 7.69487 1.79703C8.24552 1.5 8.87484 1.42574 9.50416 1.57426C10.1335 1.72277 10.6841 2.09406 10.9988 2.61386ZM15.6401 15.0148C15.7974 15.0148 16.0334 14.9406 16.1907 14.7921C16.2078 14.7599 16.2286 14.7276 16.2498 14.6946C16.3265 14.5756 16.4096 14.4467 16.348 14.2723C16.348 14.1238 16.348 13.9752 16.2694 13.901L9.58284 3.43069C9.34685 3.13366 8.87486 2.98515 8.48153 3.20792C8.42909 3.20792 8.37665 3.27393 8.3242 3.33993C8.29798 3.37294 8.27176 3.40594 8.24554 3.43069L1.559 13.901C1.40167 14.2723 1.48033 14.7178 1.87366 14.9406C2.03099 15.0149 2.10965 15.0148 2.26699 15.0148H15.6401Z" fill="white"/>
</mask>
</svg>
