<svg width="18" height="18" viewBox="0 0 18 18" fill="none" xmlns="http://www.w3.org/2000/svg">
<path fill-rule="evenodd" clip-rule="evenodd" d="M15.225 11.55C15.3 11.4 15.45 11.25 15.75 11.25C17.025 11.25 18 10.275 18 9C18 7.725 17.025 6.75 15.75 6.75H15.6C15.45 6.75 15.3 6.675 15.225 6.525C15.225 6.45 15.225 6.45 15.15 6.375C15.075 6.225 15.075 6 15.3 5.775C16.2 4.875 16.2 3.45 15.3 2.625C14.85 2.175 14.325 1.95 13.725 1.95C13.125 1.95 12.525 2.175 12.075 2.625C11.925 2.775 11.7 2.775 11.55 2.7C11.4 2.7 11.25 2.475 11.25 2.25C11.25 0.975 10.275 0 9 0C7.725 0 6.75 0.975 6.75 2.25V2.4C6.75 2.55 6.675 2.7 6.525 2.775C6.45 2.775 6.45 2.775 6.375 2.85C6.225 2.925 6 2.85 5.775 2.7C4.875 1.8 3.45 1.8 2.625 2.7C1.725 3.6 1.725 5.025 2.7 5.925C2.85 6.075 2.85 6.3 2.775 6.525C2.7 6.675 2.475 6.825 2.25 6.825C0.975 6.825 0 7.8 0 9.075C0 10.35 0.975 11.325 2.25 11.325H2.4C2.625 11.325 2.775 11.475 2.85 11.625C2.925 11.775 2.925 12 2.7 12.225C2.25 12.675 2.025 13.2 2.025 13.8C2.025 14.4 2.25 14.925 2.7 15.375C3.6 16.275 5.025 16.275 5.925 15.3C6.075 15.15 6.3 15.15 6.525 15.225C6.75 15.3 6.825 15.45 6.825 15.75C6.825 17.025 7.8 18 9.075 18C10.35 18 11.325 17.025 11.325 15.75V15.6C11.325 15.375 11.475 15.225 11.625 15.15C11.775 15.075 12 15.075 12.225 15.3C13.125 16.2 14.55 16.2 15.375 15.3C16.275 14.4 16.275 12.975 15.3 12.075C15.225 11.925 15.15 11.7 15.225 11.55ZM5.99999 9C5.99999 7.35 7.34999 6 8.99999 6C10.65 6 12 7.35 12 9C12 10.65 10.65 12 8.99999 12C7.34999 12 5.99999 10.65 5.99999 9ZM7.50001 9C7.50001 9.825 8.17501 10.5 9.00001 10.5C9.82501 10.5 10.5 9.825 10.5 9C10.5 8.175 9.82501 7.5 9.00001 7.5C8.17501 7.5 7.50001 8.175 7.50001 9ZM14.325 13.2C13.725 12.525 13.575 11.7 13.875 10.95C14.175 10.2 14.925 9.75 15.675 9.75C16.2 9.75 16.5 9.45 16.5 9C16.5 8.55 16.2 8.25 15.75 8.25H15.6C14.85 8.25 14.1 7.8 13.8 7.05C13.725 6.975 13.725 6.9 13.725 6.825C13.5 6.15 13.65 5.325 14.175 4.8C14.55 4.425 14.55 3.975 14.25 3.675C14.1 3.525 13.95 3.45 13.725 3.45C13.5 3.45 13.35 3.525 13.2 3.675C12.525 4.275 11.7 4.425 10.95 4.125C10.2 3.825 9.74999 3.15 9.74999 2.325C9.74999 1.8 9.44999 1.5 8.99999 1.5C8.54999 1.5 8.24999 1.8 8.24999 2.25V2.4C8.24999 3.15 7.79999 3.9 7.04999 4.2C6.97499 4.275 6.89999 4.275 6.82499 4.275C6.14999 4.5 5.32499 4.35 4.79999 3.825C4.42499 3.45 3.97499 3.45 3.67499 3.75C3.37499 4.05 3.37499 4.5 3.67499 4.8C4.27499 5.475 4.42499 6.3 4.12499 7.05C3.82499 7.8 3.14999 8.325 2.32499 8.325H2.24999C1.79999 8.325 1.49999 8.625 1.49999 9.075C1.49999 9.525 1.79999 9.825 2.24999 9.825H2.39999C3.14999 9.825 3.89999 10.275 4.19999 11.025C4.57499 11.775 4.42499 12.6 3.82499 13.2C3.59999 13.425 3.52499 13.575 3.52499 13.8C3.52499 14.025 3.59999 14.175 3.74999 14.325C4.04999 14.625 4.49999 14.625 4.79999 14.325C5.17499 13.95 5.69999 13.725 6.22499 13.725C6.52499 13.725 6.82499 13.725 7.04999 13.875C7.79999 14.175 8.32499 14.85 8.32499 15.675V15.75C8.32499 16.2 8.62499 16.5 9.07499 16.5C9.52499 16.5 9.82499 16.2 9.82499 15.75V15.6C9.82499 14.85 10.275 14.1 11.025 13.8C11.775 13.425 12.6 13.575 13.2 14.175C13.425 14.4 13.575 14.475 13.8 14.475C14.025 14.475 14.175 14.4 14.325 14.25C14.475 14.1 14.55 13.95 14.55 13.725C14.55 13.5 14.475 13.35 14.325 13.2Z" fill="#BDBDBD"/>
<mask id="mask0" mask-type="alpha" maskUnits="userSpaceOnUse" x="0" y="0" width="18" height="18">
<path fill-rule="evenodd" clip-rule="evenodd" d="M15.225 11.55C15.3 11.4 15.45 11.25 15.75 11.25C17.025 11.25 18 10.275 18 9C18 7.725 17.025 6.75 15.75 6.75H15.6C15.45 6.75 15.3 6.675 15.225 6.525C15.225 6.45 15.225 6.45 15.15 6.375C15.075 6.225 15.075 6 15.3 5.775C16.2 4.875 16.2 3.45 15.3 2.625C14.85 2.175 14.325 1.95 13.725 1.95C13.125 1.95 12.525 2.175 12.075 2.625C11.925 2.775 11.7 2.775 11.55 2.7C11.4 2.7 11.25 2.475 11.25 2.25C11.25 0.975 10.275 0 9 0C7.725 0 6.75 0.975 6.75 2.25V2.4C6.75 2.55 6.675 2.7 6.525 2.775C6.45 2.775 6.45 2.775 6.375 2.85C6.225 2.925 6 2.85 5.775 2.7C4.875 1.8 3.45 1.8 2.625 2.7C1.725 3.6 1.725 5.025 2.7 5.925C2.85 6.075 2.85 6.3 2.775 6.525C2.7 6.675 2.475 6.825 2.25 6.825C0.975 6.825 0 7.8 0 9.075C0 10.35 0.975 11.325 2.25 11.325H2.4C2.625 11.325 2.775 11.475 2.85 11.625C2.925 11.775 2.925 12 2.7 12.225C2.25 12.675 2.025 13.2 2.025 13.8C2.025 14.4 2.25 14.925 2.7 15.375C3.6 16.275 5.025 16.275 5.925 15.3C6.075 15.15 6.3 15.15 6.525 15.225C6.75 15.3 6.825 15.45 6.825 15.75C6.825 17.025 7.8 18 9.075 18C10.35 18 11.325 17.025 11.325 15.75V15.6C11.325 15.375 11.475 15.225 11.625 15.15C11.775 15.075 12 15.075 12.225 15.3C13.125 16.2 14.55 16.2 15.375 15.3C16.275 14.4 16.275 12.975 15.3 12.075C15.225 11.925 15.15 11.7 15.225 11.55ZM5.99999 9C5.99999 7.35 7.34999 6 8.99999 6C10.65 6 12 7.35 12 9C12 10.65 10.65 12 8.99999 12C7.34999 12 5.99999 10.65 5.99999 9ZM7.50001 9C7.50001 9.825 8.17501 10.5 9.00001 10.5C9.82501 10.5 10.5 9.825 10.5 9C10.5 8.175 9.82501 7.5 9.00001 7.5C8.17501 7.5 7.50001 8.175 7.50001 9ZM14.325 13.2C13.725 12.525 13.575 11.7 13.875 10.95C14.175 10.2 14.925 9.75 15.675 9.75C16.2 9.75 16.5 9.45 16.5 9C16.5 8.55 16.2 8.25 15.75 8.25H15.6C14.85 8.25 14.1 7.8 13.8 7.05C13.725 6.975 13.725 6.9 13.725 6.825C13.5 6.15 13.65 5.325 14.175 4.8C14.55 4.425 14.55 3.975 14.25 3.675C14.1 3.525 13.95 3.45 13.725 3.45C13.5 3.45 13.35 3.525 13.2 3.675C12.525 4.275 11.7 4.425 10.95 4.125C10.2 3.825 9.74999 3.15 9.74999 2.325C9.74999 1.8 9.44999 1.5 8.99999 1.5C8.54999 1.5 8.24999 1.8 8.24999 2.25V2.4C8.24999 3.15 7.79999 3.9 7.04999 4.2C6.97499 4.275 6.89999 4.275 6.82499 4.275C6.14999 4.5 5.32499 4.35 4.79999 3.825C4.42499 3.45 3.97499 3.45 3.67499 3.75C3.37499 4.05 3.37499 4.5 3.67499 4.8C4.27499 5.475 4.42499 6.3 4.12499 7.05C3.82499 7.8 3.14999 8.325 2.32499 8.325H2.24999C1.79999 8.325 1.49999 8.625 1.49999 9.075C1.49999 9.525 1.79999 9.825 2.24999 9.825H2.39999C3.14999 9.825 3.89999 10.275 4.19999 11.025C4.57499 11.775 4.42499 12.6 3.82499 13.2C3.59999 13.425 3.52499 13.575 3.52499 13.8C3.52499 14.025 3.59999 14.175 3.74999 14.325C4.04999 14.625 4.49999 14.625 4.79999 14.325C5.17499 13.95 5.69999 13.725 6.22499 13.725C6.52499 13.725 6.82499 13.725 7.04999 13.875C7.79999 14.175 8.32499 14.85 8.32499 15.675V15.75C8.32499 16.2 8.62499 16.5 9.07499 16.5C9.52499 16.5 9.82499 16.2 9.82499 15.75V15.6C9.82499 14.85 10.275 14.1 11.025 13.8C11.775 13.425 12.6 13.575 13.2 14.175C13.425 14.4 13.575 14.475 13.8 14.475C14.025 14.475 14.175 14.4 14.325 14.25C14.475 14.1 14.55 13.95 14.55 13.725C14.55 13.5 14.475 13.35 14.325 13.2Z" fill="white"/>
</mask>
</svg>
