<svg width="18" height="18" viewBox="0 0 18 18" fill="none" xmlns="http://www.w3.org/2000/svg">
<path fill-rule="evenodd" clip-rule="evenodd" d="M15.75 2.25H2.25C0.975 2.25 0 3.225 0 4.5V13.5C0 14.775 0.975 15.75 2.25 15.75H15.75C17.025 15.75 18 14.775 18 13.5V4.5C18 3.225 17.025 2.25 15.75 2.25ZM2.24999 3.75H15.75C16.2 3.75 16.5 4.05 16.5 4.5V6.75H1.49999V4.5C1.49999 4.05 1.79999 3.75 2.24999 3.75ZM2.24999 14.25H15.75C16.2 14.25 16.5 13.95 16.5 13.5V8.25H1.49999V13.5C1.49999 13.95 1.79999 14.25 2.24999 14.25Z" fill="#BDBDBD"/>
<mask id="mask0" mask-type="alpha" maskUnits="userSpaceOnUse" x="0" y="2" width="18" height="14">
<path fill-rule="evenodd" clip-rule="evenodd" d="M15.75 2.25H2.25C0.975 2.25 0 3.225 0 4.5V13.5C0 14.775 0.975 15.75 2.25 15.75H15.75C17.025 15.75 18 14.775 18 13.5V4.5C18 3.225 17.025 2.25 15.75 2.25ZM2.24999 3.75H15.75C16.2 3.75 16.5 4.05 16.5 4.5V6.75H1.49999V4.5C1.49999 4.05 1.79999 3.75 2.24999 3.75ZM2.24999 14.25H15.75C16.2 14.25 16.5 13.95 16.5 13.5V8.25H1.49999V13.5C1.49999 13.95 1.79999 14.25 2.24999 14.25Z" fill="white"/>
</mask>
</svg>
