<svg width="19" height="19" viewBox="0 0 19 19" fill="none" xmlns="http://www.w3.org/2000/svg">
<path fill-rule="evenodd" clip-rule="evenodd" d="M3.84599 5.86999C3.84599 3.76999 5.50256 2.12 7.61094 2.12C9.71931 2.12 11.3759 3.76999 11.3759 5.86999C11.3759 7.96999 9.71931 9.61999 7.61094 9.61999C5.50256 9.61999 3.84599 7.96999 3.84599 5.86999ZM14.3878 14.87V16.37C14.3878 16.82 14.0866 17.12 13.6348 17.12C13.183 17.12 12.8818 16.82 12.8818 16.37V14.87C12.8818 13.595 11.9029 12.62 10.6228 12.62H4.59893C3.31885 12.62 2.33996 13.595 2.33996 14.87V16.37C2.33996 16.82 2.03877 17.12 1.58697 17.12C1.13518 17.12 0.833984 16.82 0.833984 16.37V14.87C0.833984 12.77 2.49056 11.12 4.59893 11.12H10.6228C12.7312 11.12 14.3878 12.77 14.3878 14.87ZM7.61087 8.11999C6.33079 8.11999 5.3519 7.14499 5.3519 5.86999C5.3519 4.59499 6.33079 3.61999 7.61087 3.61999C8.89095 3.61999 9.86984 4.59499 9.86984 5.86999C9.86984 7.14499 8.89095 8.11999 7.61087 8.11999ZM16.0444 11.27C15.6679 11.195 15.2162 11.42 15.1409 11.795C15.0656 12.17 15.2915 12.62 15.6679 12.695C16.6468 12.92 17.3245 13.82 17.3245 14.87V16.37C17.3245 16.82 17.6257 17.12 18.0775 17.12C18.5293 17.12 18.8305 16.82 18.8305 16.37V14.87C18.9058 13.145 17.7763 11.645 16.0444 11.27ZM12.1288 2.79499C12.2794 2.34499 12.6559 2.11999 13.0324 2.26999C15.0655 2.71999 16.2702 4.81999 15.7431 6.91999C15.442 8.26999 14.3878 9.24499 13.0324 9.61999H12.8818C12.5053 9.61999 12.2041 9.39499 12.1288 9.01999C11.9782 8.64499 12.2794 8.19499 12.6559 8.11999C13.4842 7.89499 14.0866 7.29499 14.3125 6.46999C14.6137 5.19499 13.8607 3.99499 12.6559 3.69499C12.2794 3.61999 12.0535 3.16999 12.1288 2.79499Z" fill="#BDBDBD"/>
<mask id="mask0" mask-type="alpha" maskUnits="userSpaceOnUse" x="0" y="2" width="19" height="16">
<path fill-rule="evenodd" clip-rule="evenodd" d="M3.84599 5.86999C3.84599 3.76999 5.50256 2.12 7.61094 2.12C9.71931 2.12 11.3759 3.76999 11.3759 5.86999C11.3759 7.96999 9.71931 9.61999 7.61094 9.61999C5.50256 9.61999 3.84599 7.96999 3.84599 5.86999ZM14.3878 14.87V16.37C14.3878 16.82 14.0866 17.12 13.6348 17.12C13.183 17.12 12.8818 16.82 12.8818 16.37V14.87C12.8818 13.595 11.9029 12.62 10.6228 12.62H4.59893C3.31885 12.62 2.33996 13.595 2.33996 14.87V16.37C2.33996 16.82 2.03877 17.12 1.58697 17.12C1.13518 17.12 0.833984 16.82 0.833984 16.37V14.87C0.833984 12.77 2.49056 11.12 4.59893 11.12H10.6228C12.7312 11.12 14.3878 12.77 14.3878 14.87ZM7.61087 8.11999C6.33079 8.11999 5.3519 7.14499 5.3519 5.86999C5.3519 4.59499 6.33079 3.61999 7.61087 3.61999C8.89095 3.61999 9.86984 4.59499 9.86984 5.86999C9.86984 7.14499 8.89095 8.11999 7.61087 8.11999ZM16.0444 11.27C15.6679 11.195 15.2162 11.42 15.1409 11.795C15.0656 12.17 15.2915 12.62 15.6679 12.695C16.6468 12.92 17.3245 13.82 17.3245 14.87V16.37C17.3245 16.82 17.6257 17.12 18.0775 17.12C18.5293 17.12 18.8305 16.82 18.8305 16.37V14.87C18.9058 13.145 17.7763 11.645 16.0444 11.27ZM12.1288 2.79499C12.2794 2.34499 12.6559 2.11999 13.0324 2.26999C15.0655 2.71999 16.2702 4.81999 15.7431 6.91999C15.442 8.26999 14.3878 9.24499 13.0324 9.61999H12.8818C12.5053 9.61999 12.2041 9.39499 12.1288 9.01999C11.9782 8.64499 12.2794 8.19499 12.6559 8.11999C13.4842 7.89499 14.0866 7.29499 14.3125 6.46999C14.6137 5.19499 13.8607 3.99499 12.6559 3.69499C12.2794 3.61999 12.0535 3.16999 12.1288 2.79499Z" fill="white"/>
</mask>
</svg>
