<svg width="17" height="17" viewBox="0 0 17 17" fill="none" xmlns="http://www.w3.org/2000/svg">
<path fill-rule="evenodd" clip-rule="evenodd" d="M13.8333 1.13574H4.83333C3.56667 1.13574 2.5 2.20241 2.5 3.46908V13.4691C2.5 14.7357 3.56667 15.8024 4.83333 15.8024H13.8333C14.2333 15.8024 14.5 15.5357 14.5 15.1357V1.80241C14.5 1.40241 14.2333 1.13574 13.8333 1.13574ZM4.83333 2.46908H13.1667V11.1357H4.83333C4.5 11.1357 4.16667 11.2024 3.83333 11.4024V3.46908C3.83333 2.93574 4.3 2.46908 4.83333 2.46908ZM3.83333 13.4691C3.83333 14.0024 4.3 14.4691 4.83333 14.4691H13.1667V12.4691H4.83333C4.3 12.4691 3.83333 12.9357 3.83333 13.4691Z" fill="black"/>
<mask id="mask0" mask-type="alpha" maskUnits="userSpaceOnUse" x="2" y="1" width="13" height="15">
<path fill-rule="evenodd" clip-rule="evenodd" d="M13.8333 1.13574H4.83333C3.56667 1.13574 2.5 2.20241 2.5 3.46908V13.4691C2.5 14.7357 3.56667 15.8024 4.83333 15.8024H13.8333C14.2333 15.8024 14.5 15.5357 14.5 15.1357V1.80241C14.5 1.40241 14.2333 1.13574 13.8333 1.13574ZM4.83333 2.46908H13.1667V11.1357H4.83333C4.5 11.1357 4.16667 11.2024 3.83333 11.4024V3.46908C3.83333 2.93574 4.3 2.46908 4.83333 2.46908ZM3.83333 13.4691C3.83333 14.0024 4.3 14.4691 4.83333 14.4691H13.1667V12.4691H4.83333C4.3 12.4691 3.83333 12.9357 3.83333 13.4691Z" fill="white"/>
</mask>
<g mask="url(#mask0)">
<rect x="0.5" y="0.469116" width="16" height="16" fill="#028248"/>
</g>
</svg>
