<svg width="352" height="221" viewBox="0 0 352 221" fill="none" xmlns="http://www.w3.org/2000/svg">
<rect width="352" height="221" fill="white"/>
<path id="This file contains your Color Styles. They are applied to the shapes in the examples above. You can use them across all your files." opacity="0.7" d="M6.88477 193.395H4.14258V201H3.02344V193.395H0.287109V192.469H6.88477V193.395ZM9.06445 195.428C9.54492 194.838 10.1699 194.543 10.9395 194.543C12.2793 194.543 12.9551 195.299 12.9668 196.811V201H11.8828V196.805C11.8789 196.348 11.7734 196.01 11.5664 195.791C11.3633 195.572 11.0449 195.463 10.6113 195.463C10.2598 195.463 9.95117 195.557 9.68555 195.744C9.41992 195.932 9.21289 196.178 9.06445 196.482V201H7.98047V192H9.06445V195.428ZM15.7676 201H14.6836V194.66H15.7676V201ZM14.5957 192.979C14.5957 192.803 14.6484 192.654 14.7539 192.533C14.8633 192.412 15.0234 192.352 15.2344 192.352C15.4453 192.352 15.6055 192.412 15.7148 192.533C15.8242 192.654 15.8789 192.803 15.8789 192.979C15.8789 193.154 15.8242 193.301 15.7148 193.418C15.6055 193.535 15.4453 193.594 15.2344 193.594C15.0234 193.594 14.8633 193.535 14.7539 193.418C14.6484 193.301 14.5957 193.154 14.5957 192.979ZM21.1992 199.318C21.1992 199.025 21.0879 198.799 20.8652 198.639C20.6465 198.475 20.2617 198.334 19.7109 198.217C19.1641 198.1 18.7285 197.959 18.4043 197.795C18.084 197.631 17.8457 197.436 17.6895 197.209C17.5371 196.982 17.4609 196.713 17.4609 196.4C17.4609 195.881 17.6797 195.441 18.1172 195.082C18.5586 194.723 19.1211 194.543 19.8047 194.543C20.5234 194.543 21.1055 194.729 21.5508 195.1C22 195.471 22.2246 195.945 22.2246 196.523H21.1348C21.1348 196.227 21.0078 195.971 20.7539 195.756C20.5039 195.541 20.1875 195.434 19.8047 195.434C19.4102 195.434 19.1016 195.52 18.8789 195.691C18.6562 195.863 18.5449 196.088 18.5449 196.365C18.5449 196.627 18.6484 196.824 18.8555 196.957C19.0625 197.09 19.4355 197.217 19.9746 197.338C20.5176 197.459 20.957 197.604 21.293 197.771C21.6289 197.939 21.877 198.143 22.0371 198.381C22.2012 198.615 22.2832 198.902 22.2832 199.242C22.2832 199.809 22.0566 200.264 21.6035 200.607C21.1504 200.947 20.5625 201.117 19.8398 201.117C19.332 201.117 18.8828 201.027 18.4922 200.848C18.1016 200.668 17.7949 200.418 17.5723 200.098C17.3535 199.773 17.2441 199.424 17.2441 199.049H18.3281C18.3477 199.412 18.4922 199.701 18.7617 199.916C19.0352 200.127 19.3945 200.232 19.8398 200.232C20.25 200.232 20.5781 200.15 20.8242 199.986C21.0742 199.818 21.1992 199.596 21.1992 199.318ZM27.0352 201V195.498H26.0332V194.66H27.0352V194.121C27.0352 193.414 27.2363 192.863 27.6387 192.469C28.0449 192.074 28.6172 191.877 29.3555 191.877C29.793 191.877 30.3457 191.996 31.0137 192.234L30.832 193.148C30.3438 192.953 29.8789 192.855 29.4375 192.855C28.9727 192.855 28.6367 192.961 28.4297 193.172C28.2266 193.379 28.125 193.691 28.125 194.109V194.66H29.4199V195.498H28.125V201H27.0352ZM31.5527 201H30.4629V194.66H31.5527V201ZM34.4941 201H33.4102V192H34.4941V201ZM38.8652 201.117C38.0059 201.117 37.3066 200.836 36.7676 200.273C36.2285 199.707 35.959 198.951 35.959 198.006V197.807C35.959 197.178 36.0781 196.617 36.3164 196.125C36.5586 195.629 36.8945 195.242 37.3242 194.965C37.7578 194.684 38.2266 194.543 38.7305 194.543C39.5547 194.543 40.1953 194.814 40.6523 195.357C41.1094 195.9 41.3379 196.678 41.3379 197.689V198.141H37.043C37.0586 198.766 37.2402 199.271 37.5879 199.658C37.9395 200.041 38.3848 200.232 38.9238 200.232C39.3066 200.232 39.6309 200.154 39.8965 199.998C40.1621 199.842 40.3945 199.635 40.5938 199.377L41.2559 199.893C40.7246 200.709 39.9277 201.117 38.8652 201.117ZM38.7305 195.434C38.293 195.434 37.9258 195.594 37.6289 195.914C37.332 196.23 37.1484 196.676 37.0781 197.25H40.2539V197.168C40.2227 196.617 40.0742 196.191 39.8086 195.891C39.543 195.586 39.1836 195.434 38.7305 195.434ZM48.1172 200.232C48.5039 200.232 48.8418 200.115 49.1309 199.881C49.4199 199.646 49.5801 199.354 49.6113 199.002H50.6367C50.6172 199.365 50.4922 199.711 50.2617 200.039C50.0312 200.367 49.7227 200.629 49.3359 200.824C48.9531 201.02 48.5469 201.117 48.1172 201.117C47.2539 201.117 46.5664 200.83 46.0547 200.256C45.5469 199.678 45.293 198.889 45.293 197.889V197.707C45.293 197.09 45.4062 196.541 45.6328 196.061C45.8594 195.58 46.1836 195.207 46.6055 194.941C47.0312 194.676 47.5332 194.543 48.1113 194.543C48.8223 194.543 49.4121 194.756 49.8809 195.182C50.3535 195.607 50.6055 196.16 50.6367 196.84H49.6113C49.5801 196.43 49.4238 196.094 49.1426 195.832C48.8652 195.566 48.5215 195.434 48.1113 195.434C47.5605 195.434 47.1328 195.633 46.8281 196.031C46.5273 196.426 46.377 196.998 46.377 197.748V197.953C46.377 198.684 46.5273 199.246 46.8281 199.641C47.1289 200.035 47.5586 200.232 48.1172 200.232ZM51.5684 197.771C51.5684 197.15 51.6895 196.592 51.9316 196.096C52.1777 195.6 52.5176 195.217 52.9512 194.947C53.3887 194.678 53.8867 194.543 54.4453 194.543C55.3086 194.543 56.0059 194.842 56.5371 195.439C57.0723 196.037 57.3398 196.832 57.3398 197.824V197.9C57.3398 198.518 57.2207 199.072 56.9824 199.564C56.748 200.053 56.4102 200.434 55.9688 200.707C55.5312 200.98 55.0273 201.117 54.457 201.117C53.5977 201.117 52.9004 200.818 52.3652 200.221C51.834 199.623 51.5684 198.832 51.5684 197.848V197.771ZM52.6582 197.9C52.6582 198.604 52.8203 199.168 53.1445 199.594C53.4727 200.02 53.9102 200.232 54.457 200.232C55.0078 200.232 55.4453 200.018 55.7695 199.588C56.0938 199.154 56.2559 198.549 56.2559 197.771C56.2559 197.076 56.0898 196.514 55.7578 196.084C55.4297 195.65 54.9922 195.434 54.4453 195.434C53.9102 195.434 53.4785 195.646 53.1504 196.072C52.8223 196.498 52.6582 197.107 52.6582 197.9ZM59.7246 194.66L59.7598 195.457C60.2441 194.848 60.877 194.543 61.6582 194.543C62.998 194.543 63.6738 195.299 63.6855 196.811V201H62.6016V196.805C62.5977 196.348 62.4922 196.01 62.2852 195.791C62.082 195.572 61.7637 195.463 61.3301 195.463C60.9785 195.463 60.6699 195.557 60.4043 195.744C60.1387 195.932 59.9316 196.178 59.7832 196.482V201H58.6992V194.66H59.7246ZM66.791 193.125V194.66H67.9746V195.498H66.791V199.43C66.791 199.684 66.8438 199.875 66.9492 200.004C67.0547 200.129 67.2344 200.191 67.4883 200.191C67.6133 200.191 67.7852 200.168 68.0039 200.121V201C67.7188 201.078 67.4414 201.117 67.1719 201.117C66.6875 201.117 66.3223 200.971 66.0762 200.678C65.8301 200.385 65.707 199.969 65.707 199.43V195.498H64.5527V194.66H65.707V193.125H66.791ZM73.1602 201C73.0977 200.875 73.0469 200.652 73.0078 200.332C72.5039 200.855 71.9023 201.117 71.2031 201.117C70.5781 201.117 70.0645 200.941 69.6621 200.59C69.2637 200.234 69.0645 199.785 69.0645 199.242C69.0645 198.582 69.3145 198.07 69.8145 197.707C70.3184 197.34 71.0254 197.156 71.9355 197.156H72.9902V196.658C72.9902 196.279 72.877 195.979 72.6504 195.756C72.4238 195.529 72.0898 195.416 71.6484 195.416C71.2617 195.416 70.9375 195.514 70.6758 195.709C70.4141 195.904 70.2832 196.141 70.2832 196.418H69.1934C69.1934 196.102 69.3047 195.797 69.5273 195.504C69.7539 195.207 70.0586 194.973 70.4414 194.801C70.8281 194.629 71.252 194.543 71.7129 194.543C72.4434 194.543 73.0156 194.727 73.4297 195.094C73.8438 195.457 74.0586 195.959 74.0742 196.6V199.518C74.0742 200.1 74.1484 200.562 74.2969 200.906V201H73.1602ZM71.3613 200.174C71.7012 200.174 72.0234 200.086 72.3281 199.91C72.6328 199.734 72.8535 199.506 72.9902 199.225V197.924H72.1406C70.8125 197.924 70.1484 198.312 70.1484 199.09C70.1484 199.43 70.2617 199.695 70.4883 199.887C70.7148 200.078 71.0059 200.174 71.3613 200.174ZM76.9512 201H75.8672V194.66H76.9512V201ZM75.7793 192.979C75.7793 192.803 75.832 192.654 75.9375 192.533C76.0469 192.412 76.207 192.352 76.418 192.352C76.6289 192.352 76.7891 192.412 76.8984 192.533C77.0078 192.654 77.0625 192.803 77.0625 192.979C77.0625 193.154 77.0078 193.301 76.8984 193.418C76.7891 193.535 76.6289 193.594 76.418 193.594C76.207 193.594 76.0469 193.535 75.9375 193.418C75.832 193.301 75.7793 193.154 75.7793 192.979ZM79.7168 194.66L79.752 195.457C80.2363 194.848 80.8691 194.543 81.6504 194.543C82.9902 194.543 83.666 195.299 83.6777 196.811V201H82.5938V196.805C82.5898 196.348 82.4844 196.01 82.2773 195.791C82.0742 195.572 81.7559 195.463 81.3223 195.463C80.9707 195.463 80.6621 195.557 80.3965 195.744C80.1309 195.932 79.9238 196.178 79.7754 196.482V201H78.6914V194.66H79.7168ZM89.0039 199.318C89.0039 199.025 88.8926 198.799 88.6699 198.639C88.4512 198.475 88.0664 198.334 87.5156 198.217C86.9688 198.1 86.5332 197.959 86.209 197.795C85.8887 197.631 85.6504 197.436 85.4941 197.209C85.3418 196.982 85.2656 196.713 85.2656 196.4C85.2656 195.881 85.4844 195.441 85.9219 195.082C86.3633 194.723 86.9258 194.543 87.6094 194.543C88.3281 194.543 88.9102 194.729 89.3555 195.1C89.8047 195.471 90.0293 195.945 90.0293 196.523H88.9395C88.9395 196.227 88.8125 195.971 88.5586 195.756C88.3086 195.541 87.9922 195.434 87.6094 195.434C87.2148 195.434 86.9062 195.52 86.6836 195.691C86.4609 195.863 86.3496 196.088 86.3496 196.365C86.3496 196.627 86.4531 196.824 86.6602 196.957C86.8672 197.09 87.2402 197.217 87.7793 197.338C88.3223 197.459 88.7617 197.604 89.0977 197.771C89.4336 197.939 89.6816 198.143 89.8418 198.381C90.0059 198.615 90.0879 198.902 90.0879 199.242C90.0879 199.809 89.8613 200.264 89.4082 200.607C88.9551 200.947 88.3672 201.117 87.6445 201.117C87.1367 201.117 86.6875 201.027 86.2969 200.848C85.9062 200.668 85.5996 200.418 85.377 200.098C85.1582 199.773 85.0488 199.424 85.0488 199.049H86.1328C86.1523 199.412 86.2969 199.701 86.5664 199.916C86.8398 200.127 87.1992 200.232 87.6445 200.232C88.0547 200.232 88.3828 200.15 88.6289 199.986C88.8789 199.818 89.0039 199.596 89.0039 199.318ZM96.5508 199.412L98.0273 194.66H99.1875L96.6387 201.979C96.2441 203.033 95.6172 203.561 94.7578 203.561L94.5527 203.543L94.1484 203.467V202.588L94.4414 202.611C94.8086 202.611 95.0938 202.537 95.2969 202.389C95.5039 202.24 95.6738 201.969 95.8066 201.574L96.0469 200.93L93.7852 194.66H94.9688L96.5508 199.412ZM99.7793 197.771C99.7793 197.15 99.9004 196.592 100.143 196.096C100.389 195.6 100.729 195.217 101.162 194.947C101.6 194.678 102.098 194.543 102.656 194.543C103.52 194.543 104.217 194.842 104.748 195.439C105.283 196.037 105.551 196.832 105.551 197.824V197.9C105.551 198.518 105.432 199.072 105.193 199.564C104.959 200.053 104.621 200.434 104.18 200.707C103.742 200.98 103.238 201.117 102.668 201.117C101.809 201.117 101.111 200.818 100.576 200.221C100.045 199.623 99.7793 198.832 99.7793 197.848V197.771ZM100.869 197.9C100.869 198.604 101.031 199.168 101.355 199.594C101.684 200.02 102.121 200.232 102.668 200.232C103.219 200.232 103.656 200.018 103.98 199.588C104.305 199.154 104.467 198.549 104.467 197.771C104.467 197.076 104.301 196.514 103.969 196.084C103.641 195.65 103.203 195.434 102.656 195.434C102.121 195.434 101.689 195.646 101.361 196.072C101.033 196.498 100.869 197.107 100.869 197.9ZM110.824 200.373C110.402 200.869 109.783 201.117 108.967 201.117C108.291 201.117 107.775 200.922 107.42 200.531C107.068 200.137 106.891 199.555 106.887 198.785V194.66H107.971V198.756C107.971 199.717 108.361 200.197 109.143 200.197C109.971 200.197 110.521 199.889 110.795 199.271V194.66H111.879V201H110.848L110.824 200.373ZM116.596 195.633C116.432 195.605 116.254 195.592 116.062 195.592C115.352 195.592 114.869 195.895 114.615 196.5V201H113.531V194.66H114.586L114.604 195.393C114.959 194.826 115.463 194.543 116.115 194.543C116.326 194.543 116.486 194.57 116.596 194.625V195.633ZM127.02 198.293C126.914 199.195 126.58 199.893 126.018 200.385C125.459 200.873 124.715 201.117 123.785 201.117C122.777 201.117 121.969 200.756 121.359 200.033C120.754 199.311 120.451 198.344 120.451 197.133V196.312C120.451 195.52 120.592 194.822 120.873 194.221C121.158 193.619 121.561 193.158 122.08 192.838C122.6 192.514 123.201 192.352 123.885 192.352C124.791 192.352 125.518 192.605 126.064 193.113C126.611 193.617 126.93 194.316 127.02 195.211H125.889C125.791 194.531 125.578 194.039 125.25 193.734C124.926 193.43 124.471 193.277 123.885 193.277C123.166 193.277 122.602 193.543 122.191 194.074C121.785 194.605 121.582 195.361 121.582 196.342V197.168C121.582 198.094 121.775 198.83 122.162 199.377C122.549 199.924 123.09 200.197 123.785 200.197C124.41 200.197 124.889 200.057 125.221 199.775C125.557 199.49 125.779 198.996 125.889 198.293H127.02ZM128.104 197.771C128.104 197.15 128.225 196.592 128.467 196.096C128.713 195.6 129.053 195.217 129.486 194.947C129.924 194.678 130.422 194.543 130.98 194.543C131.844 194.543 132.541 194.842 133.072 195.439C133.607 196.037 133.875 196.832 133.875 197.824V197.9C133.875 198.518 133.756 199.072 133.518 199.564C133.283 200.053 132.945 200.434 132.504 200.707C132.066 200.98 131.562 201.117 130.992 201.117C130.133 201.117 129.436 200.818 128.9 200.221C128.369 199.623 128.104 198.832 128.104 197.848V197.771ZM129.193 197.9C129.193 198.604 129.355 199.168 129.68 199.594C130.008 200.02 130.445 200.232 130.992 200.232C131.543 200.232 131.98 200.018 132.305 199.588C132.629 199.154 132.791 198.549 132.791 197.771C132.791 197.076 132.625 196.514 132.293 196.084C131.965 195.65 131.527 195.434 130.98 195.434C130.445 195.434 130.014 195.646 129.686 196.072C129.357 196.498 129.193 197.107 129.193 197.9ZM136.412 201H135.328V192H136.412V201ZM137.865 197.771C137.865 197.15 137.986 196.592 138.229 196.096C138.475 195.6 138.814 195.217 139.248 194.947C139.686 194.678 140.184 194.543 140.742 194.543C141.605 194.543 142.303 194.842 142.834 195.439C143.369 196.037 143.637 196.832 143.637 197.824V197.9C143.637 198.518 143.518 199.072 143.279 199.564C143.045 200.053 142.707 200.434 142.266 200.707C141.828 200.98 141.324 201.117 140.754 201.117C139.895 201.117 139.197 200.818 138.662 200.221C138.131 199.623 137.865 198.832 137.865 197.848V197.771ZM138.955 197.9C138.955 198.604 139.117 199.168 139.441 199.594C139.77 200.02 140.207 200.232 140.754 200.232C141.305 200.232 141.742 200.018 142.066 199.588C142.391 199.154 142.553 198.549 142.553 197.771C142.553 197.076 142.387 196.514 142.055 196.084C141.727 195.65 141.289 195.434 140.742 195.434C140.207 195.434 139.775 195.646 139.447 196.072C139.119 196.498 138.955 197.107 138.955 197.9ZM148.061 195.633C147.896 195.605 147.719 195.592 147.527 195.592C146.816 195.592 146.334 195.895 146.08 196.5V201H144.996V194.66H146.051L146.068 195.393C146.424 194.826 146.928 194.543 147.58 194.543C147.791 194.543 147.951 194.57 148.061 194.625V195.633ZM154.723 197.197C153.758 196.92 153.055 196.58 152.613 196.178C152.176 195.771 151.957 195.271 151.957 194.678C151.957 194.006 152.225 193.451 152.76 193.014C153.299 192.572 153.998 192.352 154.857 192.352C155.443 192.352 155.965 192.465 156.422 192.691C156.883 192.918 157.238 193.23 157.488 193.629C157.742 194.027 157.869 194.463 157.869 194.936H156.738C156.738 194.42 156.574 194.016 156.246 193.723C155.918 193.426 155.455 193.277 154.857 193.277C154.303 193.277 153.869 193.4 153.557 193.646C153.248 193.889 153.094 194.227 153.094 194.66C153.094 195.008 153.24 195.303 153.533 195.545C153.83 195.783 154.332 196.002 155.039 196.201C155.75 196.4 156.305 196.621 156.703 196.863C157.105 197.102 157.402 197.381 157.594 197.701C157.789 198.021 157.887 198.398 157.887 198.832C157.887 199.523 157.617 200.078 157.078 200.496C156.539 200.91 155.818 201.117 154.916 201.117C154.33 201.117 153.783 201.006 153.275 200.783C152.768 200.557 152.375 200.248 152.098 199.857C151.824 199.467 151.688 199.023 151.688 198.527H152.818C152.818 199.043 153.008 199.451 153.387 199.752C153.77 200.049 154.279 200.197 154.916 200.197C155.51 200.197 155.965 200.076 156.281 199.834C156.598 199.592 156.756 199.262 156.756 198.844C156.756 198.426 156.609 198.104 156.316 197.877C156.023 197.646 155.492 197.42 154.723 197.197ZM160.635 193.125V194.66H161.818V195.498H160.635V199.43C160.635 199.684 160.688 199.875 160.793 200.004C160.898 200.129 161.078 200.191 161.332 200.191C161.457 200.191 161.629 200.168 161.848 200.121V201C161.562 201.078 161.285 201.117 161.016 201.117C160.531 201.117 160.166 200.971 159.92 200.678C159.674 200.385 159.551 199.969 159.551 199.43V195.498H158.396V194.66H159.551V193.125H160.635ZM165.164 199.412L166.641 194.66H167.801L165.252 201.979C164.857 203.033 164.23 203.561 163.371 203.561L163.166 203.543L162.762 203.467V202.588L163.055 202.611C163.422 202.611 163.707 202.537 163.91 202.389C164.117 202.24 164.287 201.969 164.42 201.574L164.66 200.93L162.398 194.66H163.582L165.164 199.412ZM169.951 201H168.867V192H169.951V201ZM174.322 201.117C173.463 201.117 172.764 200.836 172.225 200.273C171.686 199.707 171.416 198.951 171.416 198.006V197.807C171.416 197.178 171.535 196.617 171.773 196.125C172.016 195.629 172.352 195.242 172.781 194.965C173.215 194.684 173.684 194.543 174.188 194.543C175.012 194.543 175.652 194.814 176.109 195.357C176.566 195.9 176.795 196.678 176.795 197.689V198.141H172.5C172.516 198.766 172.697 199.271 173.045 199.658C173.396 200.041 173.842 200.232 174.381 200.232C174.764 200.232 175.088 200.154 175.354 199.998C175.619 199.842 175.852 199.635 176.051 199.377L176.713 199.893C176.182 200.709 175.385 201.117 174.322 201.117ZM174.188 195.434C173.75 195.434 173.383 195.594 173.086 195.914C172.789 196.23 172.605 196.676 172.535 197.25H175.711V197.168C175.68 196.617 175.531 196.191 175.266 195.891C175 195.586 174.641 195.434 174.188 195.434ZM181.746 199.318C181.746 199.025 181.635 198.799 181.412 198.639C181.193 198.475 180.809 198.334 180.258 198.217C179.711 198.1 179.275 197.959 178.951 197.795C178.631 197.631 178.393 197.436 178.236 197.209C178.084 196.982 178.008 196.713 178.008 196.4C178.008 195.881 178.227 195.441 178.664 195.082C179.105 194.723 179.668 194.543 180.352 194.543C181.07 194.543 181.652 194.729 182.098 195.1C182.547 195.471 182.771 195.945 182.771 196.523H181.682C181.682 196.227 181.555 195.971 181.301 195.756C181.051 195.541 180.734 195.434 180.352 195.434C179.957 195.434 179.648 195.52 179.426 195.691C179.203 195.863 179.092 196.088 179.092 196.365C179.092 196.627 179.195 196.824 179.402 196.957C179.609 197.09 179.982 197.217 180.521 197.338C181.064 197.459 181.504 197.604 181.84 197.771C182.176 197.939 182.424 198.143 182.584 198.381C182.748 198.615 182.83 198.902 182.83 199.242C182.83 199.809 182.604 200.264 182.15 200.607C181.697 200.947 181.109 201.117 180.387 201.117C179.879 201.117 179.43 201.027 179.039 200.848C178.648 200.668 178.342 200.418 178.119 200.098C177.9 199.773 177.791 199.424 177.791 199.049H178.875C178.895 199.412 179.039 199.701 179.309 199.916C179.582 200.127 179.941 200.232 180.387 200.232C180.797 200.232 181.125 200.15 181.371 199.986C181.621 199.818 181.746 199.596 181.746 199.318ZM184.266 200.432C184.266 200.244 184.32 200.088 184.43 199.963C184.543 199.838 184.711 199.775 184.934 199.775C185.156 199.775 185.324 199.838 185.438 199.963C185.555 200.088 185.613 200.244 185.613 200.432C185.613 200.611 185.555 200.762 185.438 200.883C185.324 201.004 185.156 201.064 184.934 201.064C184.711 201.064 184.543 201.004 184.43 200.883C184.32 200.762 184.266 200.611 184.266 200.432ZM196.213 193.395H193.471V201H192.352V193.395H189.615V192.469H196.213V193.395ZM198.393 195.428C198.873 194.838 199.498 194.543 200.268 194.543C201.607 194.543 202.283 195.299 202.295 196.811V201H201.211V196.805C201.207 196.348 201.102 196.01 200.895 195.791C200.691 195.572 200.373 195.463 199.939 195.463C199.588 195.463 199.279 195.557 199.014 195.744C198.748 195.932 198.541 196.178 198.393 196.482V201H197.309V192H198.393V195.428ZM206.549 201.117C205.689 201.117 204.99 200.836 204.451 200.273C203.912 199.707 203.643 198.951 203.643 198.006V197.807C203.643 197.178 203.762 196.617 204 196.125C204.242 195.629 204.578 195.242 205.008 194.965C205.441 194.684 205.91 194.543 206.414 194.543C207.238 194.543 207.879 194.814 208.336 195.357C208.793 195.9 209.021 196.678 209.021 197.689V198.141H204.727C204.742 198.766 204.924 199.271 205.271 199.658C205.623 200.041 206.068 200.232 206.607 200.232C206.99 200.232 207.314 200.154 207.58 199.998C207.846 199.842 208.078 199.635 208.277 199.377L208.939 199.893C208.408 200.709 207.611 201.117 206.549 201.117ZM206.414 195.434C205.977 195.434 205.609 195.594 205.312 195.914C205.016 196.23 204.832 196.676 204.762 197.25H207.938V197.168C207.906 196.617 207.758 196.191 207.492 195.891C207.227 195.586 206.867 195.434 206.414 195.434ZM212.273 199.412L213.75 194.66H214.91L212.361 201.979C211.967 203.033 211.34 203.561 210.48 203.561L210.275 203.543L209.871 203.467V202.588L210.164 202.611C210.531 202.611 210.816 202.537 211.02 202.389C211.227 202.24 211.396 201.969 211.529 201.574L211.77 200.93L209.508 194.66H210.691L212.273 199.412ZM222.773 201C222.711 200.875 222.66 200.652 222.621 200.332C222.117 200.855 221.516 201.117 220.816 201.117C220.191 201.117 219.678 200.941 219.275 200.59C218.877 200.234 218.678 199.785 218.678 199.242C218.678 198.582 218.928 198.07 219.428 197.707C219.932 197.34 220.639 197.156 221.549 197.156H222.604V196.658C222.604 196.279 222.49 195.979 222.264 195.756C222.037 195.529 221.703 195.416 221.262 195.416C220.875 195.416 220.551 195.514 220.289 195.709C220.027 195.904 219.896 196.141 219.896 196.418H218.807C218.807 196.102 218.918 195.797 219.141 195.504C219.367 195.207 219.672 194.973 220.055 194.801C220.441 194.629 220.865 194.543 221.326 194.543C222.057 194.543 222.629 194.727 223.043 195.094C223.457 195.457 223.672 195.959 223.688 196.6V199.518C223.688 200.1 223.762 200.562 223.91 200.906V201H222.773ZM220.975 200.174C221.314 200.174 221.637 200.086 221.941 199.91C222.246 199.734 222.467 199.506 222.604 199.225V197.924H221.754C220.426 197.924 219.762 198.312 219.762 199.09C219.762 199.43 219.875 199.695 220.102 199.887C220.328 200.078 220.619 200.174 220.975 200.174ZM228.451 195.633C228.287 195.605 228.109 195.592 227.918 195.592C227.207 195.592 226.725 195.895 226.471 196.5V201H225.387V194.66H226.441L226.459 195.393C226.814 194.826 227.318 194.543 227.971 194.543C228.182 194.543 228.342 194.57 228.451 194.625V195.633ZM231.967 201.117C231.107 201.117 230.408 200.836 229.869 200.273C229.33 199.707 229.061 198.951 229.061 198.006V197.807C229.061 197.178 229.18 196.617 229.418 196.125C229.66 195.629 229.996 195.242 230.426 194.965C230.859 194.684 231.328 194.543 231.832 194.543C232.656 194.543 233.297 194.814 233.754 195.357C234.211 195.9 234.439 196.678 234.439 197.689V198.141H230.145C230.16 198.766 230.342 199.271 230.689 199.658C231.041 200.041 231.486 200.232 232.025 200.232C232.408 200.232 232.732 200.154 232.998 199.998C233.264 199.842 233.496 199.635 233.695 199.377L234.357 199.893C233.826 200.709 233.029 201.117 231.967 201.117ZM231.832 195.434C231.395 195.434 231.027 195.594 230.73 195.914C230.434 196.23 230.25 196.676 230.18 197.25H233.355V197.168C233.324 196.617 233.176 196.191 232.91 195.891C232.645 195.586 232.285 195.434 231.832 195.434ZM242.59 201C242.527 200.875 242.477 200.652 242.438 200.332C241.934 200.855 241.332 201.117 240.633 201.117C240.008 201.117 239.494 200.941 239.092 200.59C238.693 200.234 238.494 199.785 238.494 199.242C238.494 198.582 238.744 198.07 239.244 197.707C239.748 197.34 240.455 197.156 241.365 197.156H242.42V196.658C242.42 196.279 242.307 195.979 242.08 195.756C241.854 195.529 241.52 195.416 241.078 195.416C240.691 195.416 240.367 195.514 240.105 195.709C239.844 195.904 239.713 196.141 239.713 196.418H238.623C238.623 196.102 238.734 195.797 238.957 195.504C239.184 195.207 239.488 194.973 239.871 194.801C240.258 194.629 240.682 194.543 241.143 194.543C241.873 194.543 242.445 194.727 242.859 195.094C243.273 195.457 243.488 195.959 243.504 196.6V199.518C243.504 200.1 243.578 200.562 243.727 200.906V201H242.59ZM240.791 200.174C241.131 200.174 241.453 200.086 241.758 199.91C242.062 199.734 242.283 199.506 242.42 199.225V197.924H241.57C240.242 197.924 239.578 198.312 239.578 199.09C239.578 199.43 239.691 199.695 239.918 199.887C240.145 200.078 240.436 200.174 240.791 200.174ZM250.559 197.9C250.559 198.865 250.338 199.643 249.896 200.232C249.455 200.822 248.857 201.117 248.104 201.117C247.334 201.117 246.729 200.873 246.287 200.385V203.438H245.203V194.66H246.193L246.246 195.363C246.688 194.816 247.301 194.543 248.086 194.543C248.848 194.543 249.449 194.83 249.891 195.404C250.336 195.979 250.559 196.777 250.559 197.801V197.9ZM249.475 197.777C249.475 197.062 249.322 196.498 249.018 196.084C248.713 195.67 248.295 195.463 247.764 195.463C247.107 195.463 246.615 195.754 246.287 196.336V199.365C246.611 199.943 247.107 200.232 247.775 200.232C248.295 200.232 248.707 200.027 249.012 199.617C249.32 199.203 249.475 198.59 249.475 197.777ZM257.297 197.9C257.297 198.865 257.076 199.643 256.635 200.232C256.193 200.822 255.596 201.117 254.842 201.117C254.072 201.117 253.467 200.873 253.025 200.385V203.438H251.941V194.66H252.932L252.984 195.363C253.426 194.816 254.039 194.543 254.824 194.543C255.586 194.543 256.188 194.83 256.629 195.404C257.074 195.979 257.297 196.777 257.297 197.801V197.9ZM256.213 197.777C256.213 197.062 256.061 196.498 255.756 196.084C255.451 195.67 255.033 195.463 254.502 195.463C253.846 195.463 253.354 195.754 253.025 196.336V199.365C253.35 199.943 253.846 200.232 254.514 200.232C255.033 200.232 255.445 200.027 255.75 199.617C256.059 199.203 256.213 198.59 256.213 197.777ZM259.857 201H258.773V192H259.857V201ZM262.775 201H261.691V194.66H262.775V201ZM261.604 192.979C261.604 192.803 261.656 192.654 261.762 192.533C261.871 192.412 262.031 192.352 262.242 192.352C262.453 192.352 262.613 192.412 262.723 192.533C262.832 192.654 262.887 192.803 262.887 192.979C262.887 193.154 262.832 193.301 262.723 193.418C262.613 193.535 262.453 193.594 262.242 193.594C262.031 193.594 261.871 193.535 261.762 193.418C261.656 193.301 261.604 193.154 261.604 192.979ZM267.146 201.117C266.287 201.117 265.588 200.836 265.049 200.273C264.51 199.707 264.24 198.951 264.24 198.006V197.807C264.24 197.178 264.359 196.617 264.598 196.125C264.84 195.629 265.176 195.242 265.605 194.965C266.039 194.684 266.508 194.543 267.012 194.543C267.836 194.543 268.477 194.814 268.934 195.357C269.391 195.9 269.619 196.678 269.619 197.689V198.141H265.324C265.34 198.766 265.521 199.271 265.869 199.658C266.221 200.041 266.666 200.232 267.205 200.232C267.588 200.232 267.912 200.154 268.178 199.998C268.443 199.842 268.676 199.635 268.875 199.377L269.537 199.893C269.006 200.709 268.209 201.117 267.146 201.117ZM267.012 195.434C266.574 195.434 266.207 195.594 265.91 195.914C265.613 196.23 265.43 196.676 265.359 197.25H268.535V197.168C268.504 196.617 268.355 196.191 268.09 195.891C267.824 195.586 267.465 195.434 267.012 195.434ZM270.615 197.777C270.615 196.805 270.846 196.023 271.307 195.434C271.768 194.84 272.371 194.543 273.117 194.543C273.859 194.543 274.447 194.797 274.881 195.305V192H275.965V201H274.969L274.916 200.32C274.482 200.852 273.879 201.117 273.105 201.117C272.371 201.117 271.771 200.816 271.307 200.215C270.846 199.613 270.615 198.828 270.615 197.859V197.777ZM271.699 197.9C271.699 198.619 271.848 199.182 272.145 199.588C272.441 199.994 272.852 200.197 273.375 200.197C274.062 200.197 274.564 199.889 274.881 199.271V196.359C274.557 195.762 274.059 195.463 273.387 195.463C272.855 195.463 272.441 195.668 272.145 196.078C271.848 196.488 271.699 197.096 271.699 197.9ZM282.1 193.125V194.66H283.283V195.498H282.1V199.43C282.1 199.684 282.152 199.875 282.258 200.004C282.363 200.129 282.543 200.191 282.797 200.191C282.922 200.191 283.094 200.168 283.312 200.121V201C283.027 201.078 282.75 201.117 282.48 201.117C281.996 201.117 281.631 200.971 281.385 200.678C281.139 200.385 281.016 199.969 281.016 199.43V195.498H279.861V194.66H281.016V193.125H282.1ZM284.15 197.771C284.15 197.15 284.271 196.592 284.514 196.096C284.76 195.6 285.1 195.217 285.533 194.947C285.971 194.678 286.469 194.543 287.027 194.543C287.891 194.543 288.588 194.842 289.119 195.439C289.654 196.037 289.922 196.832 289.922 197.824V197.9C289.922 198.518 289.803 199.072 289.564 199.564C289.33 200.053 288.992 200.434 288.551 200.707C288.113 200.98 287.609 201.117 287.039 201.117C286.18 201.117 285.482 200.818 284.947 200.221C284.416 199.623 284.15 198.832 284.15 197.848V197.771ZM285.24 197.9C285.24 198.604 285.402 199.168 285.727 199.594C286.055 200.02 286.492 200.232 287.039 200.232C287.59 200.232 288.027 200.018 288.352 199.588C288.676 199.154 288.838 198.549 288.838 197.771C288.838 197.076 288.672 196.514 288.34 196.084C288.012 195.65 287.574 195.434 287.027 195.434C286.492 195.434 286.061 195.646 285.732 196.072C285.404 196.498 285.24 197.107 285.24 197.9ZM295.729 193.125V194.66H296.912V195.498H295.729V199.43C295.729 199.684 295.781 199.875 295.887 200.004C295.992 200.129 296.172 200.191 296.426 200.191C296.551 200.191 296.723 200.168 296.941 200.121V201C296.656 201.078 296.379 201.117 296.109 201.117C295.625 201.117 295.26 200.971 295.014 200.678C294.768 200.385 294.645 199.969 294.645 199.43V195.498H293.49V194.66H294.645V193.125H295.729ZM299.268 195.428C299.748 194.838 300.373 194.543 301.143 194.543C302.482 194.543 303.158 195.299 303.17 196.811V201H302.086V196.805C302.082 196.348 301.977 196.01 301.77 195.791C301.566 195.572 301.248 195.463 300.814 195.463C300.463 195.463 300.154 195.557 299.889 195.744C299.623 195.932 299.416 196.178 299.268 196.482V201H298.184V192H299.268V195.428ZM307.424 201.117C306.564 201.117 305.865 200.836 305.326 200.273C304.787 199.707 304.518 198.951 304.518 198.006V197.807C304.518 197.178 304.637 196.617 304.875 196.125C305.117 195.629 305.453 195.242 305.883 194.965C306.316 194.684 306.785 194.543 307.289 194.543C308.113 194.543 308.754 194.814 309.211 195.357C309.668 195.9 309.896 196.678 309.896 197.689V198.141H305.602C305.617 198.766 305.799 199.271 306.146 199.658C306.498 200.041 306.943 200.232 307.482 200.232C307.865 200.232 308.189 200.154 308.455 199.998C308.721 199.842 308.953 199.635 309.152 199.377L309.814 199.893C309.283 200.709 308.486 201.117 307.424 201.117ZM307.289 195.434C306.852 195.434 306.484 195.594 306.188 195.914C305.891 196.23 305.707 196.676 305.637 197.25H308.812V197.168C308.781 196.617 308.633 196.191 308.367 195.891C308.102 195.586 307.742 195.434 307.289 195.434ZM317.824 199.318C317.824 199.025 317.713 198.799 317.49 198.639C317.271 198.475 316.887 198.334 316.336 198.217C315.789 198.1 315.354 197.959 315.029 197.795C314.709 197.631 314.471 197.436 314.314 197.209C314.162 196.982 314.086 196.713 314.086 196.4C314.086 195.881 314.305 195.441 314.742 195.082C315.184 194.723 315.746 194.543 316.43 194.543C317.148 194.543 317.73 194.729 318.176 195.1C318.625 195.471 318.85 195.945 318.85 196.523H317.76C317.76 196.227 317.633 195.971 317.379 195.756C317.129 195.541 316.812 195.434 316.43 195.434C316.035 195.434 315.727 195.52 315.504 195.691C315.281 195.863 315.17 196.088 315.17 196.365C315.17 196.627 315.273 196.824 315.48 196.957C315.688 197.09 316.061 197.217 316.6 197.338C317.143 197.459 317.582 197.604 317.918 197.771C318.254 197.939 318.502 198.143 318.662 198.381C318.826 198.615 318.908 198.902 318.908 199.242C318.908 199.809 318.682 200.264 318.229 200.607C317.775 200.947 317.188 201.117 316.465 201.117C315.957 201.117 315.508 201.027 315.117 200.848C314.727 200.668 314.42 200.418 314.197 200.098C313.979 199.773 313.869 199.424 313.869 199.049H314.953C314.973 199.412 315.117 199.701 315.387 199.916C315.66 200.127 316.02 200.232 316.465 200.232C316.875 200.232 317.203 200.15 317.449 199.986C317.699 199.818 317.824 199.596 317.824 199.318ZM321.404 195.428C321.885 194.838 322.51 194.543 323.279 194.543C324.619 194.543 325.295 195.299 325.307 196.811V201H324.223V196.805C324.219 196.348 324.113 196.01 323.906 195.791C323.703 195.572 323.385 195.463 322.951 195.463C322.6 195.463 322.291 195.557 322.025 195.744C321.76 195.932 321.553 196.178 321.404 196.482V201H320.32V192H321.404V195.428ZM330.844 201C330.781 200.875 330.73 200.652 330.691 200.332C330.188 200.855 329.586 201.117 328.887 201.117C328.262 201.117 327.748 200.941 327.346 200.59C326.947 200.234 326.748 199.785 326.748 199.242C326.748 198.582 326.998 198.07 327.498 197.707C328.002 197.34 328.709 197.156 329.619 197.156H330.674V196.658C330.674 196.279 330.561 195.979 330.334 195.756C330.107 195.529 329.773 195.416 329.332 195.416C328.945 195.416 328.621 195.514 328.359 195.709C328.098 195.904 327.967 196.141 327.967 196.418H326.877C326.877 196.102 326.988 195.797 327.211 195.504C327.438 195.207 327.742 194.973 328.125 194.801C328.512 194.629 328.936 194.543 329.396 194.543C330.127 194.543 330.699 194.727 331.113 195.094C331.527 195.457 331.742 195.959 331.758 196.6V199.518C331.758 200.1 331.832 200.562 331.98 200.906V201H330.844ZM329.045 200.174C329.385 200.174 329.707 200.086 330.012 199.91C330.316 199.734 330.537 199.506 330.674 199.225V197.924H329.824C328.496 197.924 327.832 198.312 327.832 199.09C327.832 199.43 327.945 199.695 328.172 199.887C328.398 200.078 328.689 200.174 329.045 200.174ZM338.812 197.9C338.812 198.865 338.592 199.643 338.15 200.232C337.709 200.822 337.111 201.117 336.357 201.117C335.588 201.117 334.982 200.873 334.541 200.385V203.438H333.457V194.66H334.447L334.5 195.363C334.941 194.816 335.555 194.543 336.34 194.543C337.102 194.543 337.703 194.83 338.145 195.404C338.59 195.979 338.812 196.777 338.812 197.801V197.9ZM337.729 197.777C337.729 197.062 337.576 196.498 337.271 196.084C336.967 195.67 336.549 195.463 336.018 195.463C335.361 195.463 334.869 195.754 334.541 196.336V199.365C334.865 199.943 335.361 200.232 336.029 200.232C336.549 200.232 336.961 200.027 337.266 199.617C337.574 199.203 337.729 198.59 337.729 197.777ZM342.826 201.117C341.967 201.117 341.268 200.836 340.729 200.273C340.189 199.707 339.92 198.951 339.92 198.006V197.807C339.92 197.178 340.039 196.617 340.277 196.125C340.52 195.629 340.855 195.242 341.285 194.965C341.719 194.684 342.188 194.543 342.691 194.543C343.516 194.543 344.156 194.814 344.613 195.357C345.07 195.9 345.299 196.678 345.299 197.689V198.141H341.004C341.02 198.766 341.201 199.271 341.549 199.658C341.9 200.041 342.346 200.232 342.885 200.232C343.268 200.232 343.592 200.154 343.857 199.998C344.123 199.842 344.355 199.635 344.555 199.377L345.217 199.893C344.686 200.709 343.889 201.117 342.826 201.117ZM342.691 195.434C342.254 195.434 341.887 195.594 341.59 195.914C341.293 196.23 341.109 196.676 341.039 197.25H344.215V197.168C344.184 196.617 344.035 196.191 343.77 195.891C343.504 195.586 343.145 195.434 342.691 195.434ZM350.25 199.318C350.25 199.025 350.139 198.799 349.916 198.639C349.697 198.475 349.312 198.334 348.762 198.217C348.215 198.1 347.779 197.959 347.455 197.795C347.135 197.631 346.896 197.436 346.74 197.209C346.588 196.982 346.512 196.713 346.512 196.4C346.512 195.881 346.73 195.441 347.168 195.082C347.609 194.723 348.172 194.543 348.855 194.543C349.574 194.543 350.156 194.729 350.602 195.1C351.051 195.471 351.275 195.945 351.275 196.523H350.186C350.186 196.227 350.059 195.971 349.805 195.756C349.555 195.541 349.238 195.434 348.855 195.434C348.461 195.434 348.152 195.52 347.93 195.691C347.707 195.863 347.596 196.088 347.596 196.365C347.596 196.627 347.699 196.824 347.906 196.957C348.113 197.09 348.486 197.217 349.025 197.338C349.568 197.459 350.008 197.604 350.344 197.771C350.68 197.939 350.928 198.143 351.088 198.381C351.252 198.615 351.334 198.902 351.334 199.242C351.334 199.809 351.107 200.264 350.654 200.607C350.201 200.947 349.613 201.117 348.891 201.117C348.383 201.117 347.934 201.027 347.543 200.848C347.152 200.668 346.846 200.418 346.623 200.098C346.404 199.773 346.295 199.424 346.295 199.049H347.379C347.398 199.412 347.543 199.701 347.812 199.916C348.086 200.127 348.445 200.232 348.891 200.232C349.301 200.232 349.629 200.15 349.875 199.986C350.125 199.818 350.25 199.596 350.25 199.318ZM1.99805 218H0.914062V211.66H1.99805V218ZM0.826172 209.979C0.826172 209.803 0.878906 209.654 0.984375 209.533C1.09375 209.412 1.25391 209.352 1.46484 209.352C1.67578 209.352 1.83594 209.412 1.94531 209.533C2.05469 209.654 2.10938 209.803 2.10938 209.979C2.10938 210.154 2.05469 210.301 1.94531 210.418C1.83594 210.535 1.67578 210.594 1.46484 210.594C1.25391 210.594 1.09375 210.535 0.984375 210.418C0.878906 210.301 0.826172 210.154 0.826172 209.979ZM4.76367 211.66L4.79883 212.457C5.2832 211.848 5.91602 211.543 6.69727 211.543C8.03711 211.543 8.71289 212.299 8.72461 213.811V218H7.64062V213.805C7.63672 213.348 7.53125 213.01 7.32422 212.791C7.12109 212.572 6.80273 212.463 6.36914 212.463C6.01758 212.463 5.70898 212.557 5.44336 212.744C5.17773 212.932 4.9707 213.178 4.82227 213.482V218H3.73828V211.66H4.76367ZM14.8066 210.125V211.66H15.9902V212.498H14.8066V216.43C14.8066 216.684 14.8594 216.875 14.9648 217.004C15.0703 217.129 15.25 217.191 15.5039 217.191C15.6289 217.191 15.8008 217.168 16.0195 217.121V218C15.7344 218.078 15.457 218.117 15.1875 218.117C14.7031 218.117 14.3379 217.971 14.0918 217.678C13.8457 217.385 13.7227 216.969 13.7227 216.43V212.498H12.5684V211.66H13.7227V210.125H14.8066ZM18.3457 212.428C18.8262 211.838 19.4512 211.543 20.2207 211.543C21.5605 211.543 22.2363 212.299 22.248 213.811V218H21.1641V213.805C21.1602 213.348 21.0547 213.01 20.8477 212.791C20.6445 212.572 20.3262 212.463 19.8926 212.463C19.541 212.463 19.2324 212.557 18.9668 212.744C18.7012 212.932 18.4941 213.178 18.3457 213.482V218H17.2617V209H18.3457V212.428ZM26.502 218.117C25.6426 218.117 24.9434 217.836 24.4043 217.273C23.8652 216.707 23.5957 215.951 23.5957 215.006V214.807C23.5957 214.178 23.7148 213.617 23.9531 213.125C24.1953 212.629 24.5312 212.242 24.9609 211.965C25.3945 211.684 25.8633 211.543 26.3672 211.543C27.1914 211.543 27.832 211.814 28.2891 212.357C28.7461 212.9 28.9746 213.678 28.9746 214.689V215.141H24.6797C24.6953 215.766 24.877 216.271 25.2246 216.658C25.5762 217.041 26.0215 217.232 26.5605 217.232C26.9434 217.232 27.2676 217.154 27.5332 216.998C27.7988 216.842 28.0312 216.635 28.2305 216.377L28.8926 216.893C28.3613 217.709 27.5645 218.117 26.502 218.117ZM26.3672 212.434C25.9297 212.434 25.5625 212.594 25.2656 212.914C24.9688 213.23 24.7852 213.676 24.7148 214.25H27.8906V214.168C27.8594 213.617 27.7109 213.191 27.4453 212.891C27.1797 212.586 26.8203 212.434 26.3672 212.434ZM35.8418 218.117C34.9824 218.117 34.2832 217.836 33.7441 217.273C33.2051 216.707 32.9355 215.951 32.9355 215.006V214.807C32.9355 214.178 33.0547 213.617 33.293 213.125C33.5352 212.629 33.8711 212.242 34.3008 211.965C34.7344 211.684 35.2031 211.543 35.707 211.543C36.5312 211.543 37.1719 211.814 37.6289 212.357C38.0859 212.9 38.3145 213.678 38.3145 214.689V215.141H34.0195C34.0352 215.766 34.2168 216.271 34.5645 216.658C34.916 217.041 35.3613 217.232 35.9004 217.232C36.2832 217.232 36.6074 217.154 36.873 216.998C37.1387 216.842 37.3711 216.635 37.5703 216.377L38.2324 216.893C37.7012 217.709 36.9043 218.117 35.8418 218.117ZM35.707 212.434C35.2695 212.434 34.9023 212.594 34.6055 212.914C34.3086 213.23 34.125 213.676 34.0547 214.25H37.2305V214.168C37.1992 213.617 37.0508 213.191 36.7852 212.891C36.5195 212.586 36.1602 212.434 35.707 212.434ZM41.7012 213.975L43.1074 211.66H44.373L42.2988 214.795L44.4375 218H43.1836L41.7188 215.627L40.2539 218H38.9941L41.1328 214.795L39.0586 211.66H40.3125L41.7012 213.975ZM49.4414 218C49.3789 217.875 49.3281 217.652 49.2891 217.332C48.7852 217.855 48.1836 218.117 47.4844 218.117C46.8594 218.117 46.3457 217.941 45.9434 217.59C45.5449 217.234 45.3457 216.785 45.3457 216.242C45.3457 215.582 45.5957 215.07 46.0957 214.707C46.5996 214.34 47.3066 214.156 48.2168 214.156H49.2715V213.658C49.2715 213.279 49.1582 212.979 48.9316 212.756C48.7051 212.529 48.3711 212.416 47.9297 212.416C47.543 212.416 47.2188 212.514 46.957 212.709C46.6953 212.904 46.5645 213.141 46.5645 213.418H45.4746C45.4746 213.102 45.5859 212.797 45.8086 212.504C46.0352 212.207 46.3398 211.973 46.7227 211.801C47.1094 211.629 47.5332 211.543 47.9941 211.543C48.7246 211.543 49.2969 211.727 49.7109 212.094C50.125 212.457 50.3398 212.959 50.3555 213.6V216.518C50.3555 217.1 50.4297 217.562 50.5781 217.906V218H49.4414ZM47.6426 217.174C47.9824 217.174 48.3047 217.086 48.6094 216.91C48.9141 216.734 49.1348 216.506 49.2715 216.225V214.924H48.4219C47.0938 214.924 46.4297 215.312 46.4297 216.09C46.4297 216.43 46.543 216.695 46.7695 216.887C46.9961 217.078 47.2871 217.174 47.6426 217.174ZM53.0742 211.66L53.1035 212.363C53.5684 211.816 54.1953 211.543 54.9844 211.543C55.8711 211.543 56.4746 211.883 56.7949 212.562C57.0059 212.258 57.2793 212.012 57.6152 211.824C57.9551 211.637 58.3555 211.543 58.8164 211.543C60.207 211.543 60.9141 212.279 60.9375 213.752V218H59.8535V213.816C59.8535 213.363 59.75 213.025 59.543 212.803C59.3359 212.576 58.9883 212.463 58.5 212.463C58.0977 212.463 57.7637 212.584 57.498 212.826C57.2324 213.064 57.0781 213.387 57.0352 213.793V218H55.9453V213.846C55.9453 212.924 55.4941 212.463 54.5918 212.463C53.8809 212.463 53.3945 212.766 53.1328 213.371V218H52.0488V211.66H53.0742ZM67.9336 214.9C67.9336 215.865 67.7129 216.643 67.2715 217.232C66.8301 217.822 66.2324 218.117 65.4785 218.117C64.709 218.117 64.1035 217.873 63.6621 217.385V220.438H62.5781V211.66H63.5684L63.6211 212.363C64.0625 211.816 64.6758 211.543 65.4609 211.543C66.2227 211.543 66.8242 211.83 67.2656 212.404C67.7109 212.979 67.9336 213.777 67.9336 214.801V214.9ZM66.8496 214.777C66.8496 214.062 66.6973 213.498 66.3926 213.084C66.0879 212.67 65.6699 212.463 65.1387 212.463C64.4824 212.463 63.9902 212.754 63.6621 213.336V216.365C63.9863 216.943 64.4824 217.232 65.1504 217.232C65.6699 217.232 66.082 217.027 66.3867 216.617C66.6953 216.203 66.8496 215.59 66.8496 214.777ZM70.4941 218H69.4102V209H70.4941V218ZM74.8652 218.117C74.0059 218.117 73.3066 217.836 72.7676 217.273C72.2285 216.707 71.959 215.951 71.959 215.006V214.807C71.959 214.178 72.0781 213.617 72.3164 213.125C72.5586 212.629 72.8945 212.242 73.3242 211.965C73.7578 211.684 74.2266 211.543 74.7305 211.543C75.5547 211.543 76.1953 211.814 76.6523 212.357C77.1094 212.9 77.3379 213.678 77.3379 214.689V215.141H73.043C73.0586 215.766 73.2402 216.271 73.5879 216.658C73.9395 217.041 74.3848 217.232 74.9238 217.232C75.3066 217.232 75.6309 217.154 75.8965 216.998C76.1621 216.842 76.3945 216.635 76.5938 216.377L77.2559 216.893C76.7246 217.709 75.9277 218.117 74.8652 218.117ZM74.7305 212.434C74.293 212.434 73.9258 212.594 73.6289 212.914C73.332 213.23 73.1484 213.676 73.0781 214.25H76.2539V214.168C76.2227 213.617 76.0742 213.191 75.8086 212.891C75.543 212.586 75.1836 212.434 74.7305 212.434ZM82.2891 216.318C82.2891 216.025 82.1777 215.799 81.9551 215.639C81.7363 215.475 81.3516 215.334 80.8008 215.217C80.2539 215.1 79.8184 214.959 79.4941 214.795C79.1738 214.631 78.9355 214.436 78.7793 214.209C78.627 213.982 78.5508 213.713 78.5508 213.4C78.5508 212.881 78.7695 212.441 79.207 212.082C79.6484 211.723 80.2109 211.543 80.8945 211.543C81.6133 211.543 82.1953 211.729 82.6406 212.1C83.0898 212.471 83.3145 212.945 83.3145 213.523H82.2246C82.2246 213.227 82.0977 212.971 81.8438 212.756C81.5938 212.541 81.2773 212.434 80.8945 212.434C80.5 212.434 80.1914 212.52 79.9688 212.691C79.7461 212.863 79.6348 213.088 79.6348 213.365C79.6348 213.627 79.7383 213.824 79.9453 213.957C80.1523 214.09 80.5254 214.217 81.0645 214.338C81.6074 214.459 82.0469 214.604 82.3828 214.771C82.7188 214.939 82.9668 215.143 83.127 215.381C83.291 215.615 83.373 215.902 83.373 216.242C83.373 216.809 83.1465 217.264 82.6934 217.607C82.2402 217.947 81.6523 218.117 80.9297 218.117C80.4219 218.117 79.9727 218.027 79.582 217.848C79.1914 217.668 78.8848 217.418 78.6621 217.098C78.4434 216.773 78.334 216.424 78.334 216.049H79.418C79.4375 216.412 79.582 216.701 79.8516 216.916C80.125 217.127 80.4844 217.232 80.9297 217.232C81.3398 217.232 81.668 217.15 81.9141 216.986C82.1641 216.818 82.2891 216.596 82.2891 216.318ZM91.6758 218C91.6133 217.875 91.5625 217.652 91.5234 217.332C91.0195 217.855 90.418 218.117 89.7188 218.117C89.0938 218.117 88.5801 217.941 88.1777 217.59C87.7793 217.234 87.5801 216.785 87.5801 216.242C87.5801 215.582 87.8301 215.07 88.3301 214.707C88.834 214.34 89.541 214.156 90.4512 214.156H91.5059V213.658C91.5059 213.279 91.3926 212.979 91.166 212.756C90.9395 212.529 90.6055 212.416 90.1641 212.416C89.7773 212.416 89.4531 212.514 89.1914 212.709C88.9297 212.904 88.7988 213.141 88.7988 213.418H87.709C87.709 213.102 87.8203 212.797 88.043 212.504C88.2695 212.207 88.5742 211.973 88.957 211.801C89.3438 211.629 89.7676 211.543 90.2285 211.543C90.959 211.543 91.5312 211.727 91.9453 212.094C92.3594 212.457 92.5742 212.959 92.5898 213.6V216.518C92.5898 217.1 92.6641 217.562 92.8125 217.906V218H91.6758ZM89.877 217.174C90.2168 217.174 90.5391 217.086 90.8438 216.91C91.1484 216.734 91.3691 216.506 91.5059 216.225V214.924H90.6562C89.3281 214.924 88.6641 215.312 88.6641 216.09C88.6641 216.43 88.7773 216.695 89.0039 216.887C89.2305 217.078 89.5215 217.174 89.877 217.174ZM99.6562 214.9C99.6562 215.869 99.4336 216.648 98.9883 217.238C98.543 217.824 97.9453 218.117 97.1953 218.117C96.3945 218.117 95.7754 217.834 95.3379 217.268L95.2852 218H94.2891V209H95.373V212.357C95.8105 211.814 96.4141 211.543 97.1836 211.543C97.9531 211.543 98.5566 211.834 98.9941 212.416C99.4355 212.998 99.6562 213.795 99.6562 214.807V214.9ZM98.5723 214.777C98.5723 214.039 98.4297 213.469 98.1445 213.066C97.8594 212.664 97.4492 212.463 96.9141 212.463C96.1992 212.463 95.6855 212.795 95.373 213.459V216.201C95.7051 216.865 96.2227 217.197 96.9258 217.197C97.4453 217.197 97.8496 216.996 98.1387 216.594C98.4277 216.191 98.5723 215.586 98.5723 214.777ZM100.74 214.771C100.74 214.15 100.861 213.592 101.104 213.096C101.35 212.6 101.689 212.217 102.123 211.947C102.561 211.678 103.059 211.543 103.617 211.543C104.48 211.543 105.178 211.842 105.709 212.439C106.244 213.037 106.512 213.832 106.512 214.824V214.9C106.512 215.518 106.393 216.072 106.154 216.564C105.92 217.053 105.582 217.434 105.141 217.707C104.703 217.98 104.199 218.117 103.629 218.117C102.77 218.117 102.072 217.818 101.537 217.221C101.006 216.623 100.74 215.832 100.74 214.848V214.771ZM101.83 214.9C101.83 215.604 101.992 216.168 102.316 216.594C102.645 217.02 103.082 217.232 103.629 217.232C104.18 217.232 104.617 217.018 104.941 216.588C105.266 216.154 105.428 215.549 105.428 214.771C105.428 214.076 105.262 213.514 104.93 213.084C104.602 212.65 104.164 212.434 103.617 212.434C103.082 212.434 102.65 212.646 102.322 213.072C101.994 213.498 101.83 214.107 101.83 214.9ZM109.869 216.529L111.439 211.66H112.547L110.273 218H109.447L107.15 211.66H108.258L109.869 216.529ZM116.139 218.117C115.279 218.117 114.58 217.836 114.041 217.273C113.502 216.707 113.232 215.951 113.232 215.006V214.807C113.232 214.178 113.352 213.617 113.59 213.125C113.832 212.629 114.168 212.242 114.598 211.965C115.031 211.684 115.5 211.543 116.004 211.543C116.828 211.543 117.469 211.814 117.926 212.357C118.383 212.9 118.611 213.678 118.611 214.689V215.141H114.316C114.332 215.766 114.514 216.271 114.861 216.658C115.213 217.041 115.658 217.232 116.197 217.232C116.58 217.232 116.904 217.154 117.17 216.998C117.436 216.842 117.668 216.635 117.867 216.377L118.529 216.893C117.998 217.709 117.201 218.117 116.139 218.117ZM116.004 212.434C115.566 212.434 115.199 212.594 114.902 212.914C114.605 213.23 114.422 213.676 114.352 214.25H117.527V214.168C117.496 213.617 117.348 213.191 117.082 212.891C116.816 212.586 116.457 212.434 116.004 212.434ZM119.895 217.432C119.895 217.244 119.949 217.088 120.059 216.963C120.172 216.838 120.34 216.775 120.562 216.775C120.785 216.775 120.953 216.838 121.066 216.963C121.184 217.088 121.242 217.244 121.242 217.432C121.242 217.611 121.184 217.762 121.066 217.883C120.953 218.004 120.785 218.064 120.562 218.064C120.34 218.064 120.172 218.004 120.059 217.883C119.949 217.762 119.895 217.611 119.895 217.432ZM128.783 213.752L131.01 209.469H132.287L129.346 214.818V218H128.221V214.818L125.279 209.469H126.568L128.783 213.752ZM132.545 214.771C132.545 214.15 132.666 213.592 132.908 213.096C133.154 212.6 133.494 212.217 133.928 211.947C134.365 211.678 134.863 211.543 135.422 211.543C136.285 211.543 136.982 211.842 137.514 212.439C138.049 213.037 138.316 213.832 138.316 214.824V214.9C138.316 215.518 138.197 216.072 137.959 216.564C137.725 217.053 137.387 217.434 136.945 217.707C136.508 217.98 136.004 218.117 135.434 218.117C134.574 218.117 133.877 217.818 133.342 217.221C132.811 216.623 132.545 215.832 132.545 214.848V214.771ZM133.635 214.9C133.635 215.604 133.797 216.168 134.121 216.594C134.449 217.02 134.887 217.232 135.434 217.232C135.984 217.232 136.422 217.018 136.746 216.588C137.07 216.154 137.232 215.549 137.232 214.771C137.232 214.076 137.066 213.514 136.734 213.084C136.406 212.65 135.969 212.434 135.422 212.434C134.887 212.434 134.455 212.646 134.127 213.072C133.799 213.498 133.635 214.107 133.635 214.9ZM143.59 217.373C143.168 217.869 142.549 218.117 141.732 218.117C141.057 218.117 140.541 217.922 140.186 217.531C139.834 217.137 139.656 216.555 139.652 215.785V211.66H140.736V215.756C140.736 216.717 141.127 217.197 141.908 217.197C142.736 217.197 143.287 216.889 143.561 216.271V211.66H144.645V218H143.613L143.59 217.373ZM151.816 217.232C152.203 217.232 152.541 217.115 152.83 216.881C153.119 216.646 153.279 216.354 153.311 216.002H154.336C154.316 216.365 154.191 216.711 153.961 217.039C153.73 217.367 153.422 217.629 153.035 217.824C152.652 218.02 152.246 218.117 151.816 218.117C150.953 218.117 150.266 217.83 149.754 217.256C149.246 216.678 148.992 215.889 148.992 214.889V214.707C148.992 214.09 149.105 213.541 149.332 213.061C149.559 212.58 149.883 212.207 150.305 211.941C150.73 211.676 151.232 211.543 151.811 211.543C152.521 211.543 153.111 211.756 153.58 212.182C154.053 212.607 154.305 213.16 154.336 213.84H153.311C153.279 213.43 153.123 213.094 152.842 212.832C152.564 212.566 152.221 212.434 151.811 212.434C151.26 212.434 150.832 212.633 150.527 213.031C150.227 213.426 150.076 213.998 150.076 214.748V214.953C150.076 215.684 150.227 216.246 150.527 216.641C150.828 217.035 151.258 217.232 151.816 217.232ZM159.469 218C159.406 217.875 159.355 217.652 159.316 217.332C158.812 217.855 158.211 218.117 157.512 218.117C156.887 218.117 156.373 217.941 155.971 217.59C155.572 217.234 155.373 216.785 155.373 216.242C155.373 215.582 155.623 215.07 156.123 214.707C156.627 214.34 157.334 214.156 158.244 214.156H159.299V213.658C159.299 213.279 159.186 212.979 158.959 212.756C158.732 212.529 158.398 212.416 157.957 212.416C157.57 212.416 157.246 212.514 156.984 212.709C156.723 212.904 156.592 213.141 156.592 213.418H155.502C155.502 213.102 155.613 212.797 155.836 212.504C156.062 212.207 156.367 211.973 156.75 211.801C157.137 211.629 157.561 211.543 158.021 211.543C158.752 211.543 159.324 211.727 159.738 212.094C160.152 212.457 160.367 212.959 160.383 213.6V216.518C160.383 217.1 160.457 217.562 160.605 217.906V218H159.469ZM157.67 217.174C158.01 217.174 158.332 217.086 158.637 216.91C158.941 216.734 159.162 216.506 159.299 216.225V214.924H158.449C157.121 214.924 156.457 215.312 156.457 216.09C156.457 216.43 156.57 216.695 156.797 216.887C157.023 217.078 157.314 217.174 157.67 217.174ZM163.107 211.66L163.143 212.457C163.627 211.848 164.26 211.543 165.041 211.543C166.381 211.543 167.057 212.299 167.068 213.811V218H165.984V213.805C165.98 213.348 165.875 213.01 165.668 212.791C165.465 212.572 165.146 212.463 164.713 212.463C164.361 212.463 164.053 212.557 163.787 212.744C163.521 212.932 163.314 213.178 163.166 213.482V218H162.082V211.66H163.107ZM175.594 217.373C175.172 217.869 174.553 218.117 173.736 218.117C173.061 218.117 172.545 217.922 172.189 217.531C171.838 217.137 171.66 216.555 171.656 215.785V211.66H172.74V215.756C172.74 216.717 173.131 217.197 173.912 217.197C174.74 217.197 175.291 216.889 175.564 216.271V211.66H176.648V218H175.617L175.594 217.373ZM181.992 216.318C181.992 216.025 181.881 215.799 181.658 215.639C181.439 215.475 181.055 215.334 180.504 215.217C179.957 215.1 179.521 214.959 179.197 214.795C178.877 214.631 178.639 214.436 178.482 214.209C178.33 213.982 178.254 213.713 178.254 213.4C178.254 212.881 178.473 212.441 178.91 212.082C179.352 211.723 179.914 211.543 180.598 211.543C181.316 211.543 181.898 211.729 182.344 212.1C182.793 212.471 183.018 212.945 183.018 213.523H181.928C181.928 213.227 181.801 212.971 181.547 212.756C181.297 212.541 180.98 212.434 180.598 212.434C180.203 212.434 179.895 212.52 179.672 212.691C179.449 212.863 179.338 213.088 179.338 213.365C179.338 213.627 179.441 213.824 179.648 213.957C179.855 214.09 180.229 214.217 180.768 214.338C181.311 214.459 181.75 214.604 182.086 214.771C182.422 214.939 182.67 215.143 182.83 215.381C182.994 215.615 183.076 215.902 183.076 216.242C183.076 216.809 182.85 217.264 182.396 217.607C181.943 217.947 181.355 218.117 180.633 218.117C180.125 218.117 179.676 218.027 179.285 217.848C178.895 217.668 178.588 217.418 178.365 217.098C178.146 216.773 178.037 216.424 178.037 216.049H179.121C179.141 216.412 179.285 216.701 179.555 216.916C179.828 217.127 180.188 217.232 180.633 217.232C181.043 217.232 181.371 217.15 181.617 216.986C181.867 216.818 181.992 216.596 181.992 216.318ZM187.119 218.117C186.26 218.117 185.561 217.836 185.021 217.273C184.482 216.707 184.213 215.951 184.213 215.006V214.807C184.213 214.178 184.332 213.617 184.57 213.125C184.812 212.629 185.148 212.242 185.578 211.965C186.012 211.684 186.48 211.543 186.984 211.543C187.809 211.543 188.449 211.814 188.906 212.357C189.363 212.9 189.592 213.678 189.592 214.689V215.141H185.297C185.312 215.766 185.494 216.271 185.842 216.658C186.193 217.041 186.639 217.232 187.178 217.232C187.561 217.232 187.885 217.154 188.15 216.998C188.416 216.842 188.648 216.635 188.848 216.377L189.51 216.893C188.979 217.709 188.182 218.117 187.119 218.117ZM186.984 212.434C186.547 212.434 186.18 212.594 185.883 212.914C185.586 213.23 185.402 213.676 185.332 214.25H188.508V214.168C188.477 213.617 188.328 213.191 188.062 212.891C187.797 212.586 187.438 212.434 186.984 212.434ZM195.299 210.125V211.66H196.482V212.498H195.299V216.43C195.299 216.684 195.352 216.875 195.457 217.004C195.562 217.129 195.742 217.191 195.996 217.191C196.121 217.191 196.293 217.168 196.512 217.121V218C196.227 218.078 195.949 218.117 195.68 218.117C195.195 218.117 194.83 217.971 194.584 217.678C194.338 217.385 194.215 216.969 194.215 216.43V212.498H193.061V211.66H194.215V210.125H195.299ZM198.838 212.428C199.318 211.838 199.943 211.543 200.713 211.543C202.053 211.543 202.729 212.299 202.74 213.811V218H201.656V213.805C201.652 213.348 201.547 213.01 201.34 212.791C201.137 212.572 200.818 212.463 200.385 212.463C200.033 212.463 199.725 212.557 199.459 212.744C199.193 212.932 198.986 213.178 198.838 213.482V218H197.754V209H198.838V212.428ZM206.994 218.117C206.135 218.117 205.436 217.836 204.896 217.273C204.357 216.707 204.088 215.951 204.088 215.006V214.807C204.088 214.178 204.207 213.617 204.445 213.125C204.688 212.629 205.023 212.242 205.453 211.965C205.887 211.684 206.355 211.543 206.859 211.543C207.684 211.543 208.324 211.814 208.781 212.357C209.238 212.9 209.467 213.678 209.467 214.689V215.141H205.172C205.188 215.766 205.369 216.271 205.717 216.658C206.068 217.041 206.514 217.232 207.053 217.232C207.436 217.232 207.76 217.154 208.025 216.998C208.291 216.842 208.523 216.635 208.723 216.377L209.385 216.893C208.854 217.709 208.057 218.117 206.994 218.117ZM206.859 212.434C206.422 212.434 206.055 212.594 205.758 212.914C205.461 213.23 205.277 213.676 205.207 214.25H208.383V214.168C208.352 213.617 208.203 213.191 207.938 212.891C207.672 212.586 207.312 212.434 206.859 212.434ZM211.746 211.66L211.775 212.363C212.24 211.816 212.867 211.543 213.656 211.543C214.543 211.543 215.146 211.883 215.467 212.562C215.678 212.258 215.951 212.012 216.287 211.824C216.627 211.637 217.027 211.543 217.488 211.543C218.879 211.543 219.586 212.279 219.609 213.752V218H218.525V213.816C218.525 213.363 218.422 213.025 218.215 212.803C218.008 212.576 217.66 212.463 217.172 212.463C216.77 212.463 216.436 212.584 216.17 212.826C215.904 213.064 215.75 213.387 215.707 213.793V218H214.617V213.846C214.617 212.924 214.166 212.463 213.264 212.463C212.553 212.463 212.066 212.766 211.805 213.371V218H210.721V211.66H211.746ZM228.141 218C228.078 217.875 228.027 217.652 227.988 217.332C227.484 217.855 226.883 218.117 226.184 218.117C225.559 218.117 225.045 217.941 224.643 217.59C224.244 217.234 224.045 216.785 224.045 216.242C224.045 215.582 224.295 215.07 224.795 214.707C225.299 214.34 226.006 214.156 226.916 214.156H227.971V213.658C227.971 213.279 227.857 212.979 227.631 212.756C227.404 212.529 227.07 212.416 226.629 212.416C226.242 212.416 225.918 212.514 225.656 212.709C225.395 212.904 225.264 213.141 225.264 213.418H224.174C224.174 213.102 224.285 212.797 224.508 212.504C224.734 212.207 225.039 211.973 225.422 211.801C225.809 211.629 226.232 211.543 226.693 211.543C227.424 211.543 227.996 211.727 228.41 212.094C228.824 212.457 229.039 212.959 229.055 213.6V216.518C229.055 217.1 229.129 217.562 229.277 217.906V218H228.141ZM226.342 217.174C226.682 217.174 227.004 217.086 227.309 216.91C227.613 216.734 227.834 216.506 227.971 216.225V214.924H227.121C225.793 214.924 225.129 215.312 225.129 216.09C225.129 216.43 225.242 216.695 225.469 216.887C225.695 217.078 225.986 217.174 226.342 217.174ZM233.297 217.232C233.684 217.232 234.021 217.115 234.311 216.881C234.6 216.646 234.76 216.354 234.791 216.002H235.816C235.797 216.365 235.672 216.711 235.441 217.039C235.211 217.367 234.902 217.629 234.516 217.824C234.133 218.02 233.727 218.117 233.297 218.117C232.434 218.117 231.746 217.83 231.234 217.256C230.727 216.678 230.473 215.889 230.473 214.889V214.707C230.473 214.09 230.586 213.541 230.812 213.061C231.039 212.58 231.363 212.207 231.785 211.941C232.211 211.676 232.713 211.543 233.291 211.543C234.002 211.543 234.592 211.756 235.061 212.182C235.533 212.607 235.785 213.16 235.816 213.84H234.791C234.76 213.43 234.604 213.094 234.322 212.832C234.045 212.566 233.701 212.434 233.291 212.434C232.74 212.434 232.312 212.633 232.008 213.031C231.707 213.426 231.557 213.998 231.557 214.748V214.953C231.557 215.684 231.707 216.246 232.008 216.641C232.309 217.035 232.738 217.232 233.297 217.232ZM240.1 212.633C239.936 212.605 239.758 212.592 239.566 212.592C238.855 212.592 238.373 212.895 238.119 213.5V218H237.035V211.66H238.09L238.107 212.393C238.463 211.826 238.967 211.543 239.619 211.543C239.83 211.543 239.99 211.57 240.1 211.625V212.633ZM240.697 214.771C240.697 214.15 240.818 213.592 241.061 213.096C241.307 212.6 241.646 212.217 242.08 211.947C242.518 211.678 243.016 211.543 243.574 211.543C244.438 211.543 245.135 211.842 245.666 212.439C246.201 213.037 246.469 213.832 246.469 214.824V214.9C246.469 215.518 246.35 216.072 246.111 216.564C245.877 217.053 245.539 217.434 245.098 217.707C244.66 217.98 244.156 218.117 243.586 218.117C242.727 218.117 242.029 217.818 241.494 217.221C240.963 216.623 240.697 215.832 240.697 214.848V214.771ZM241.787 214.9C241.787 215.604 241.949 216.168 242.273 216.594C242.602 217.02 243.039 217.232 243.586 217.232C244.137 217.232 244.574 217.018 244.898 216.588C245.223 216.154 245.385 215.549 245.385 214.771C245.385 214.076 245.219 213.514 244.887 213.084C244.559 212.65 244.121 212.434 243.574 212.434C243.039 212.434 242.607 212.646 242.279 213.072C241.951 213.498 241.787 214.107 241.787 214.9ZM251.52 216.318C251.52 216.025 251.408 215.799 251.186 215.639C250.967 215.475 250.582 215.334 250.031 215.217C249.484 215.1 249.049 214.959 248.725 214.795C248.404 214.631 248.166 214.436 248.01 214.209C247.857 213.982 247.781 213.713 247.781 213.4C247.781 212.881 248 212.441 248.438 212.082C248.879 211.723 249.441 211.543 250.125 211.543C250.844 211.543 251.426 211.729 251.871 212.1C252.32 212.471 252.545 212.945 252.545 213.523H251.455C251.455 213.227 251.328 212.971 251.074 212.756C250.824 212.541 250.508 212.434 250.125 212.434C249.73 212.434 249.422 212.52 249.199 212.691C248.977 212.863 248.865 213.088 248.865 213.365C248.865 213.627 248.969 213.824 249.176 213.957C249.383 214.09 249.756 214.217 250.295 214.338C250.838 214.459 251.277 214.604 251.613 214.771C251.949 214.939 252.197 215.143 252.357 215.381C252.521 215.615 252.604 215.902 252.604 216.242C252.604 216.809 252.377 217.264 251.924 217.607C251.471 217.947 250.883 218.117 250.16 218.117C249.652 218.117 249.203 218.027 248.812 217.848C248.422 217.668 248.115 217.418 247.893 217.098C247.674 216.773 247.564 216.424 247.564 216.049H248.648C248.668 216.412 248.812 216.701 249.082 216.916C249.355 217.127 249.715 217.232 250.16 217.232C250.57 217.232 250.898 217.15 251.145 216.986C251.395 216.818 251.52 216.596 251.52 216.318ZM257.707 216.318C257.707 216.025 257.596 215.799 257.373 215.639C257.154 215.475 256.77 215.334 256.219 215.217C255.672 215.1 255.236 214.959 254.912 214.795C254.592 214.631 254.354 214.436 254.197 214.209C254.045 213.982 253.969 213.713 253.969 213.4C253.969 212.881 254.188 212.441 254.625 212.082C255.066 211.723 255.629 211.543 256.312 211.543C257.031 211.543 257.613 211.729 258.059 212.1C258.508 212.471 258.732 212.945 258.732 213.523H257.643C257.643 213.227 257.516 212.971 257.262 212.756C257.012 212.541 256.695 212.434 256.312 212.434C255.918 212.434 255.609 212.52 255.387 212.691C255.164 212.863 255.053 213.088 255.053 213.365C255.053 213.627 255.156 213.824 255.363 213.957C255.57 214.09 255.943 214.217 256.482 214.338C257.025 214.459 257.465 214.604 257.801 214.771C258.137 214.939 258.385 215.143 258.545 215.381C258.709 215.615 258.791 215.902 258.791 216.242C258.791 216.809 258.564 217.264 258.111 217.607C257.658 217.947 257.07 218.117 256.348 218.117C255.84 218.117 255.391 218.027 255 217.848C254.609 217.668 254.303 217.418 254.08 217.098C253.861 216.773 253.752 216.424 253.752 216.049H254.836C254.855 216.412 255 216.701 255.27 216.916C255.543 217.127 255.902 217.232 256.348 217.232C256.758 217.232 257.086 217.15 257.332 216.986C257.582 216.818 257.707 216.596 257.707 216.318ZM267.094 218C267.031 217.875 266.98 217.652 266.941 217.332C266.438 217.855 265.836 218.117 265.137 218.117C264.512 218.117 263.998 217.941 263.596 217.59C263.197 217.234 262.998 216.785 262.998 216.242C262.998 215.582 263.248 215.07 263.748 214.707C264.252 214.34 264.959 214.156 265.869 214.156H266.924V213.658C266.924 213.279 266.811 212.979 266.584 212.756C266.357 212.529 266.023 212.416 265.582 212.416C265.195 212.416 264.871 212.514 264.609 212.709C264.348 212.904 264.217 213.141 264.217 213.418H263.127C263.127 213.102 263.238 212.797 263.461 212.504C263.688 212.207 263.992 211.973 264.375 211.801C264.762 211.629 265.186 211.543 265.646 211.543C266.377 211.543 266.949 211.727 267.363 212.094C267.777 212.457 267.992 212.959 268.008 213.6V216.518C268.008 217.1 268.082 217.562 268.23 217.906V218H267.094ZM265.295 217.174C265.635 217.174 265.957 217.086 266.262 216.91C266.566 216.734 266.787 216.506 266.924 216.225V214.924H266.074C264.746 214.924 264.082 215.312 264.082 216.09C264.082 216.43 264.195 216.695 264.422 216.887C264.648 217.078 264.939 217.174 265.295 217.174ZM270.885 218H269.801V209H270.885V218ZM273.803 218H272.719V209H273.803V218ZM280.594 216.412L282.07 211.66H283.23L280.682 218.979C280.287 220.033 279.66 220.561 278.801 220.561L278.596 220.543L278.191 220.467V219.588L278.484 219.611C278.852 219.611 279.137 219.537 279.34 219.389C279.547 219.24 279.717 218.969 279.85 218.574L280.09 217.93L277.828 211.66H279.012L280.594 216.412ZM283.822 214.771C283.822 214.15 283.943 213.592 284.186 213.096C284.432 212.6 284.771 212.217 285.205 211.947C285.643 211.678 286.141 211.543 286.699 211.543C287.562 211.543 288.26 211.842 288.791 212.439C289.326 213.037 289.594 213.832 289.594 214.824V214.9C289.594 215.518 289.475 216.072 289.236 216.564C289.002 217.053 288.664 217.434 288.223 217.707C287.785 217.98 287.281 218.117 286.711 218.117C285.852 218.117 285.154 217.818 284.619 217.221C284.088 216.623 283.822 215.832 283.822 214.848V214.771ZM284.912 214.9C284.912 215.604 285.074 216.168 285.398 216.594C285.727 217.02 286.164 217.232 286.711 217.232C287.262 217.232 287.699 217.018 288.023 216.588C288.348 216.154 288.51 215.549 288.51 214.771C288.51 214.076 288.344 213.514 288.012 213.084C287.684 212.65 287.246 212.434 286.699 212.434C286.164 212.434 285.732 212.646 285.404 213.072C285.076 213.498 284.912 214.107 284.912 214.9ZM294.867 217.373C294.445 217.869 293.826 218.117 293.01 218.117C292.334 218.117 291.818 217.922 291.463 217.531C291.111 217.137 290.934 216.555 290.93 215.785V211.66H292.014V215.756C292.014 216.717 292.404 217.197 293.186 217.197C294.014 217.197 294.564 216.889 294.838 216.271V211.66H295.922V218H294.891L294.867 217.373ZM300.639 212.633C300.475 212.605 300.297 212.592 300.105 212.592C299.395 212.592 298.912 212.895 298.658 213.5V218H297.574V211.66H298.629L298.646 212.393C299.002 211.826 299.506 211.543 300.158 211.543C300.369 211.543 300.529 211.57 300.639 211.625V212.633ZM304.98 218V212.498H303.979V211.66H304.98V211.121C304.98 210.414 305.182 209.863 305.584 209.469C305.99 209.074 306.562 208.877 307.301 208.877C307.738 208.877 308.291 208.996 308.959 209.234L308.777 210.148C308.289 209.953 307.824 209.855 307.383 209.855C306.918 209.855 306.582 209.961 306.375 210.172C306.172 210.379 306.07 210.691 306.07 211.109V211.66H307.365V212.498H306.07V218H304.98ZM309.498 218H308.408V211.66H309.498V218ZM312.439 218H311.355V209H312.439V218ZM316.811 218.117C315.951 218.117 315.252 217.836 314.713 217.273C314.174 216.707 313.904 215.951 313.904 215.006V214.807C313.904 214.178 314.023 213.617 314.262 213.125C314.504 212.629 314.84 212.242 315.27 211.965C315.703 211.684 316.172 211.543 316.676 211.543C317.5 211.543 318.141 211.814 318.598 212.357C319.055 212.9 319.283 213.678 319.283 214.689V215.141H314.988C315.004 215.766 315.186 216.271 315.533 216.658C315.885 217.041 316.33 217.232 316.869 217.232C317.252 217.232 317.576 217.154 317.842 216.998C318.107 216.842 318.34 216.635 318.539 216.377L319.201 216.893C318.67 217.709 317.873 218.117 316.811 218.117ZM316.676 212.434C316.238 212.434 315.871 212.594 315.574 212.914C315.277 213.23 315.094 213.676 315.023 214.25H318.199V214.168C318.168 213.617 318.02 213.191 317.754 212.891C317.488 212.586 317.129 212.434 316.676 212.434ZM324.234 216.318C324.234 216.025 324.123 215.799 323.9 215.639C323.682 215.475 323.297 215.334 322.746 215.217C322.199 215.1 321.764 214.959 321.439 214.795C321.119 214.631 320.881 214.436 320.725 214.209C320.572 213.982 320.496 213.713 320.496 213.4C320.496 212.881 320.715 212.441 321.152 212.082C321.594 211.723 322.156 211.543 322.84 211.543C323.559 211.543 324.141 211.729 324.586 212.1C325.035 212.471 325.26 212.945 325.26 213.523H324.17C324.17 213.227 324.043 212.971 323.789 212.756C323.539 212.541 323.223 212.434 322.84 212.434C322.445 212.434 322.137 212.52 321.914 212.691C321.691 212.863 321.58 213.088 321.58 213.365C321.58 213.627 321.684 213.824 321.891 213.957C322.098 214.09 322.471 214.217 323.01 214.338C323.553 214.459 323.992 214.604 324.328 214.771C324.664 214.939 324.912 215.143 325.072 215.381C325.236 215.615 325.318 215.902 325.318 216.242C325.318 216.809 325.092 217.264 324.639 217.607C324.186 217.947 323.598 218.117 322.875 218.117C322.367 218.117 321.918 218.027 321.527 217.848C321.137 217.668 320.83 217.418 320.607 217.098C320.389 216.773 320.279 216.424 320.279 216.049H321.363C321.383 216.412 321.527 216.701 321.797 216.916C322.07 217.127 322.43 217.232 322.875 217.232C323.285 217.232 323.613 217.15 323.859 216.986C324.109 216.818 324.234 216.596 324.234 216.318ZM326.754 217.432C326.754 217.244 326.809 217.088 326.918 216.963C327.031 216.838 327.199 216.775 327.422 216.775C327.645 216.775 327.812 216.838 327.926 216.963C328.043 217.088 328.102 217.244 328.102 217.432C328.102 217.611 328.043 217.762 327.926 217.883C327.812 218.004 327.645 218.064 327.422 218.064C327.199 218.064 327.031 218.004 326.918 217.883C326.809 217.762 326.754 217.611 326.754 217.432Z" fill="#050505"/>
<rect id="Example" width="40" height="40" rx="3" fill="#010203"/>
<rect id="Example_2" x="60" width="40" height="40" rx="3" fill="#4F4F4F"/>
<rect id="Example_3" x="120" width="40" height="40" rx="3" fill="#828282"/>
<rect id="Example_4" x="180" width="40" height="40" rx="3" fill="#BDBDBD"/>
<rect id="Example_5" x="240" width="40" height="40" rx="3" fill="#E0E0E0"/>
<rect id="Example_6" x="300" width="40" height="40" rx="3" fill="#F2F2F2"/>
<rect id="Example_7" x="300" y="60" width="40" height="40" rx="3" fill="#FCFDFF"/>
<rect id="Example_8" y="120" width="40" height="40" rx="3" fill="white"/>
<rect id="Example_9" x="60" y="120" width="40" height="40" rx="3" fill="#F2994A"/>
<rect id="Example_10" x="120" y="120" width="40" height="40" rx="3" fill="#F2C94C"/>
<rect id="Example_11" x="180" y="120" width="40" height="40" rx="3" fill="#1D1D1D"/>
<rect id="Example_12" x="180" y="60" width="40" height="40" rx="3" fill="#028248"/>
<rect id="Example_13" x="240" y="60" width="40" height="40" rx="3" fill="#4EB191"/>
<rect id="Example_14" x="240" y="120" width="40" height="40" rx="3" fill="#FF5238"/>
<rect id="Example_15" y="60" width="40" height="40" rx="3" fill="#0476D0"/>
<g id="Example_16" filter="url(#filter0_d)">
<rect x="60" y="60" width="40" height="40" rx="3" fill="#0476D0"/>
</g>
<rect id="Example_17" x="120" y="60" width="40" height="40" rx="3" fill="#56CCF2"/>
<defs>
<filter id="filter0_d" x="56" y="60" width="48" height="48" filterUnits="userSpaceOnUse" color-interpolation-filters="sRGB">
<feFlood flood-opacity="0" result="BackgroundImageFix"/>
<feColorMatrix in="SourceAlpha" type="matrix" values="0 0 0 0 0 0 0 0 0 0 0 0 0 0 0 0 0 0 127 0"/>
<feOffset dy="4"/>
<feGaussianBlur stdDeviation="2"/>
<feColorMatrix type="matrix" values="0 0 0 0 0 0 0 0 0 0 0 0 0 0 0 0 0 0 0.25 0"/>
<feBlend mode="normal" in2="BackgroundImageFix" result="effect1_dropShadow"/>
<feBlend mode="normal" in="SourceGraphic" in2="effect1_dropShadow" result="shape"/>
</filter>
</defs>
</svg>
