<svg width="12" height="12" viewBox="0 0 12 12" fill="none" xmlns="http://www.w3.org/2000/svg">
<path fill-rule="evenodd" clip-rule="evenodd" d="M1 5C1 2.25 3.25 0 6 0C8.75 0 11 2.25 11 5C11 8.7 6.45 11.8 6.3 11.9C6.2 11.95 6.1 12 6 12C5.9 12 5.8 11.95 5.7 11.9C5.55 11.8 1 8.7 1 5ZM2 5C2 7.7 5.05 10.2 6 10.9C6.95 10.2 10 7.7 10 5C10 2.8 8.2 1 6 1C3.8 1 2 2.8 2 5ZM6 3C4.9 3 4 3.9 4 5C4 6.1 4.9 7 6 7C7.1 7 8 6.1 8 5C8 3.9 7.1 3 6 3ZM5 5C5 5.55 5.45 6 6 6C6.55 6 7 5.55 7 5C7 4.45 6.55 4 6 4C5.45 4 5 4.45 5 5Z" fill="#1D1D1D"/>
<mask id="mask0" mask-type="alpha" maskUnits="userSpaceOnUse" x="1" y="0" width="10" height="12">
<path fill-rule="evenodd" clip-rule="evenodd" d="M1 5C1 2.25 3.25 0 6 0C8.75 0 11 2.25 11 5C11 8.7 6.45 11.8 6.3 11.9C6.2 11.95 6.1 12 6 12C5.9 12 5.8 11.95 5.7 11.9C5.55 11.8 1 8.7 1 5ZM2 5C2 7.7 5.05 10.2 6 10.9C6.95 10.2 10 7.7 10 5C10 2.8 8.2 1 6 1C3.8 1 2 2.8 2 5ZM6 3C4.9 3 4 3.9 4 5C4 6.1 4.9 7 6 7C7.1 7 8 6.1 8 5C8 3.9 7.1 3 6 3ZM5 5C5 5.55 5.45 6 6 6C6.55 6 7 5.55 7 5C7 4.45 6.55 4 6 4C5.45 4 5 4.45 5 5Z" fill="white"/>
</mask>
<g mask="url(#mask0)">
<rect width="12" height="12" fill="#4F4F4F"/>
</g>
</svg>
