<svg width="12" height="12" viewBox="0 0 12 12" fill="none" xmlns="http://www.w3.org/2000/svg">
<path fill-rule="evenodd" clip-rule="evenodd" d="M9.5 4.5H8.1875V3.64286C8.1875 2.46 7.2075 1.5 6 1.5C4.7925 1.5 3.8125 2.46 3.8125 3.64286V4.5H2.5V10.5H9.5V4.5ZM4.6875 3.64282C4.6875 2.93139 5.27375 2.35711 6 2.35711C6.72625 2.35711 7.3125 2.93139 7.3125 3.64282V4.49997H4.6875V3.64282ZM8.625 9.64282H3.375V5.35711H8.625V9.64282ZM6 8.35718C6.48125 8.35718 6.875 7.97146 6.875 7.50003C6.875 7.02861 6.48125 6.64289 6 6.64289C5.51875 6.64289 5.125 7.02861 5.125 7.50003C5.125 7.97146 5.51875 8.35718 6 8.35718Z" fill="#1D1D1D"/>
</svg>
