<svg width="28" height="28" viewBox="0 0 28 28" fill="none" xmlns="http://www.w3.org/2000/svg">
<path fill-rule="evenodd" clip-rule="evenodd" d="M4.90008 4.89996C7.35008 2.44996 10.6167 1.16663 14.0001 1.16663C21.1167 1.16663 26.8334 6.88329 26.8334 14V15.1666C26.8334 17.7333 24.7334 19.8333 22.1667 19.8333C20.5334 19.8333 19.1334 19.0166 18.3167 17.85C17.2667 19.0166 15.7501 19.8333 14.0001 19.8333C10.7334 19.8333 8.16675 17.2666 8.16675 14C8.16675 10.7333 10.7334 8.16663 14.0001 8.16663C17.2667 8.16663 19.8334 10.7333 19.8334 14V15.1666C19.8334 16.45 20.8834 17.5 22.1667 17.5C23.4501 17.5 24.5001 16.45 24.5001 15.1666V14C24.5001 8.16663 19.8334 3.49996 14.0001 3.49996C11.2001 3.49996 8.51675 4.54996 6.53341 6.53329C4.55008 8.51662 3.50008 11.2 3.50008 14C3.50008 19.8333 8.16675 24.5 14.0001 24.5C16.3334 24.5 18.5501 23.6833 20.4167 22.2833C20.8834 21.9333 21.7001 22.05 22.0501 22.5166C22.4001 22.9833 22.2834 23.8 21.8167 24.15C19.6001 25.9 16.8001 26.8333 14.0001 26.8333C6.88341 26.8333 1.16675 21.1166 1.16675 14C1.16675 10.6166 2.45008 7.34996 4.90008 4.89996ZM10.5001 14C10.5001 15.9833 12.0167 17.5 14.0001 17.5C15.9834 17.5 17.5001 15.9833 17.5001 14C17.5001 12.0166 15.9834 10.5 14.0001 10.5C12.0167 10.5 10.5001 12.0166 10.5001 14Z" fill="black"/>
<mask id="mask0" mask-type="alpha" maskUnits="userSpaceOnUse" x="1" y="1" width="26" height="26">
<path fill-rule="evenodd" clip-rule="evenodd" d="M4.90008 4.89996C7.35008 2.44996 10.6167 1.16663 14.0001 1.16663C21.1167 1.16663 26.8334 6.88329 26.8334 14V15.1666C26.8334 17.7333 24.7334 19.8333 22.1667 19.8333C20.5334 19.8333 19.1334 19.0166 18.3167 17.85C17.2667 19.0166 15.7501 19.8333 14.0001 19.8333C10.7334 19.8333 8.16675 17.2666 8.16675 14C8.16675 10.7333 10.7334 8.16663 14.0001 8.16663C17.2667 8.16663 19.8334 10.7333 19.8334 14V15.1666C19.8334 16.45 20.8834 17.5 22.1667 17.5C23.4501 17.5 24.5001 16.45 24.5001 15.1666V14C24.5001 8.16663 19.8334 3.49996 14.0001 3.49996C11.2001 3.49996 8.51675 4.54996 6.53341 6.53329C4.55008 8.51662 3.50008 11.2 3.50008 14C3.50008 19.8333 8.16675 24.5 14.0001 24.5C16.3334 24.5 18.5501 23.6833 20.4167 22.2833C20.8834 21.9333 21.7001 22.05 22.0501 22.5166C22.4001 22.9833 22.2834 23.8 21.8167 24.15C19.6001 25.9 16.8001 26.8333 14.0001 26.8333C6.88341 26.8333 1.16675 21.1166 1.16675 14C1.16675 10.6166 2.45008 7.34996 4.90008 4.89996ZM10.5001 14C10.5001 15.9833 12.0167 17.5 14.0001 17.5C15.9834 17.5 17.5001 15.9833 17.5001 14C17.5001 12.0166 15.9834 10.5 14.0001 10.5C12.0167 10.5 10.5001 12.0166 10.5001 14Z" fill="white"/>
</mask>
<g mask="url(#mask0)">
<rect width="28" height="28" fill="#347AF0"/>
</g>
</svg>
