<svg width="37" height="37" viewBox="0 0 37 37" fill="none" xmlns="http://www.w3.org/2000/svg">
<path fill-rule="evenodd" clip-rule="evenodd" d="M20.0687 3.08337C27.6081 3.39171 33.455 9.40421 33.9166 16.8042V17.575C33.9166 19.8875 33.455 22.2 32.3779 24.2042C29.9161 29.1375 24.8386 32.2209 19.2994 32.2209C17.1453 32.2209 15.1451 31.7584 13.2987 30.9875L5.14386 33.7625C4.98999 33.9167 4.83613 33.9167 4.68226 33.9167C4.22067 33.9167 3.91294 33.7625 3.45134 33.4542C3.14361 33.1459 2.98975 32.5292 3.14361 31.9125L5.91318 23.7417C5.14386 21.8917 4.68226 19.7334 4.68226 17.7292C4.68226 12.1792 7.75956 7.09171 12.8371 4.62504C14.8373 3.54587 16.9915 3.08337 19.2994 3.08337H20.0687ZM29.6084 22.9708C30.3777 21.275 30.8393 19.5792 30.8393 17.7292V16.9583C30.3777 11.1 25.7618 6.475 19.9149 6.16667H19.2995C17.6069 6.16667 15.7606 6.62917 14.2219 7.4C10.2214 9.40417 7.75959 13.2583 7.75959 17.7292C7.75959 19.425 8.22119 21.275 8.99051 22.8167C9.29824 23.2792 9.29824 23.5875 9.14438 24.05L7.14413 29.9083L12.991 27.9042H12.991C13.4526 27.9042 13.9142 27.9042 14.2219 28.0583C15.7606 28.8292 17.6069 29.2917 19.2995 29.2917C23.7615 29.2917 27.6082 26.9792 29.6084 22.9708Z" fill="black"/>
<mask id="mask0" mask-type="alpha" maskUnits="userSpaceOnUse" x="3" y="3" width="31" height="31">
<path fill-rule="evenodd" clip-rule="evenodd" d="M20.0687 3.08337C27.6081 3.39171 33.455 9.40421 33.9166 16.8042V17.575C33.9166 19.8875 33.455 22.2 32.3779 24.2042C29.9161 29.1375 24.8386 32.2209 19.2994 32.2209C17.1453 32.2209 15.1451 31.7584 13.2987 30.9875L5.14386 33.7625C4.98999 33.9167 4.83613 33.9167 4.68226 33.9167C4.22067 33.9167 3.91294 33.7625 3.45134 33.4542C3.14361 33.1459 2.98975 32.5292 3.14361 31.9125L5.91318 23.7417C5.14386 21.8917 4.68226 19.7334 4.68226 17.7292C4.68226 12.1792 7.75956 7.09171 12.8371 4.62504C14.8373 3.54587 16.9915 3.08337 19.2994 3.08337H20.0687ZM29.6084 22.9708C30.3777 21.275 30.8393 19.5792 30.8393 17.7292V16.9583C30.3777 11.1 25.7618 6.475 19.9149 6.16667H19.2995C17.6069 6.16667 15.7606 6.62917 14.2219 7.4C10.2214 9.40417 7.75959 13.2583 7.75959 17.7292C7.75959 19.425 8.22119 21.275 8.99051 22.8167C9.29824 23.2792 9.29824 23.5875 9.14438 24.05L7.14413 29.9083L12.991 27.9042H12.991C13.4526 27.9042 13.9142 27.9042 14.2219 28.0583C15.7606 28.8292 17.6069 29.2917 19.2995 29.2917C23.7615 29.2917 27.6082 26.9792 29.6084 22.9708Z" fill="white"/>
</mask>
<g mask="url(#mask0)">
<rect width="37" height="37" fill="#347AF0"/>
</g>
</svg>
