<svg width="22" height="33" viewBox="0 0 22 33" version="1.1" xmlns="http://www.w3.org/2000/svg" xmlns:xlink="http://www.w3.org/1999/xlink">
<g id="Canvas" fill="none">
<g id="Group 6">
<g id="Vector">
<path fill-rule="evenodd" clip-rule="evenodd" d="M 0.5 1.5C 0.224 1.5 0 1.276 0 1L 0 0.5C 0 0.224 0.224 0 0.5 0C 0.776 0 1 0.224 1 0.5L 1 1C 1 1.276 0.776 1.5 0.5 1.5Z" transform="translate(20.3164 5.91528)" fill="#119BDA"/>
</g>
<g id="Vector_2">
<path fill-rule="evenodd" clip-rule="evenodd" d="M 0.5 1.5C 0.224 1.5 0 1.276 0 1L 0 0.5C 0 0.224 0.224 0 0.5 0C 0.776 0 1 0.224 1 0.5L 1 1C 1 1.276 0.776 1.5 0.5 1.5Z" transform="translate(20.3164 7.91528)" fill="#119BDA"/>
</g>
<g id="Vector_3">
<path fill-rule="evenodd" clip-rule="evenodd" d="M 0.5 1.5C 0.224 1.5 0 1.276 0 1L 0 0.5C 0 0.224 0.224 0 0.5 0C 0.776 0 1 0.224 1 0.5L 1 1C 1 1.276 0.776 1.5 0.5 1.5Z" transform="translate(20.3164 11.9153)" fill="#119BDA"/>
</g>
<g id="Vector_4">
<path fill-rule="evenodd" clip-rule="evenodd" d="M 2.33 1.06667C 1.69353 1.06667 1.17647 1.536 1.17647 2.11253L 1.17647 29.8875C 1.17647 30.464 1.69353 30.9333 2.33 30.9333L 17.6694 30.9333C 18.3059 30.9333 18.8235 30.464 18.8235 29.8875L 18.8235 2.11253C 18.8235 1.536 18.3059 1.06667 17.6694 1.06667L 2.33 1.06667ZM 17.6694 32L 2.33 32C 1.04471 32 0 31.0523 0 29.8875L 0 2.11253C 0 0.947733 1.04471 0 2.33 0L 17.6694 0C 18.9547 0 20 0.947733 20 2.11253L 20 29.8875C 20 31.0523 18.9547 32 17.6694 32Z" transform="translate(0.816406 0.415283)" fill="#119BDA"/>
</g>
<g id="Vector_5">
<path fill-rule="evenodd" clip-rule="evenodd" d="M 2 1C 1.4485 1 1 1.4485 1 2C 1 2.5515 1.4485 3 2 3C 2.5515 3 3 2.5515 3 2C 3 1.4485 2.5515 1 2 1ZM 2 4C 0.897 4 0 3.103 0 2C 0 0.897 0.897 0 2 0C 3.103 0 4 0.897 4 2C 4 3.103 3.103 4 2 4Z" transform="translate(4.81641 4.41528)" fill="#119BDA"/>
</g>
<g id="Vector_6">
<path fill-rule="evenodd" clip-rule="evenodd" d="M 4.76222 1L 0.529136 1C 0.237053 1 0 0.776 0 0.5C 0 0.224 0.237053 0 0.529136 0L 4.76222 0C 5.0543 0 5.29136 0.224 5.29136 0.5C 5.29136 0.776 5.0543 1 4.76222 1Z" transform="translate(8.16992 25.9316)" fill="#119BDA"/>
</g>
<g id="Vector_7">
<path fill-rule="evenodd" clip-rule="evenodd" d="M 2.64568 1L 0.529135 1C 0.237053 1 0 0.776 0 0.5C 0 0.224 0.237053 0 0.529135 0L 2.64568 0C 2.93776 0 3.17481 0.224 3.17481 0.5C 3.17481 0.776 2.93776 1 2.64568 1Z" transform="translate(9.23047 27.9316)" fill="#119BDA"/>
</g>
<g id="Vector_8">
<path fill-rule="evenodd" clip-rule="evenodd" d="M 1 0.5C 1 0.224 0.776 0 0.5 0C 0.224 0 0 0.224 0 0.5C 0 0.776 0.224 1 0.5 1C 0.776 1 1 0.776 1 0.5Z" transform="translate(10.8164 5.91528)" fill="#119BDA"/>
</g>
</g>
</g>
</svg>

