<svg width="37" height="33" viewBox="0 0 37 33" version="1.1" xmlns="http://www.w3.org/2000/svg" xmlns:xlink="http://www.w3.org/1999/xlink">
<g id="Canvas" fill="none">
<g id="Vector">
<path d="M 0.741485 0.000899286C 0.538053 0.0200722 0.349155 0.114664 0.211941 0.266073C 0.0747269 0.417481 -0.000873451 0.614749 7.61526e-06 0.819081L 7.61526e-06 31.91C 2.93109e-05 32.127 0.0862373 32.3351 0.239671 32.4885C 0.393106 32.6419 0.601201 32.7281 0.818189 32.7282L 35.1818 32.7282C 35.3988 32.7281 35.6069 32.6419 35.7603 32.4885C 35.9138 32.3351 36 32.127 36 31.91L 36 11.4554C 36 11.2385 35.9138 11.0304 35.7603 10.8769C 35.6069 10.7235 35.3988 10.6373 35.1818 10.6373L 22.9091 10.6373C 22.8007 10.6357 22.693 10.6558 22.5924 10.6962C 22.4918 10.7366 22.4002 10.7966 22.323 10.8728C 22.2458 10.9489 22.1845 11.0396 22.1427 11.1396C 22.1008 11.2397 22.0793 11.347 22.0793 11.4554C 22.0793 11.5639 22.1008 11.6712 22.1427 11.7712C 22.1845 11.8713 22.2458 11.962 22.323 12.0381C 22.4002 12.1142 22.4918 12.1743 22.5924 12.2147C 22.693 12.2551 22.8007 12.2752 22.9091 12.2736L 34.3636 12.2736L 34.3636 31.0918L 20.4545 31.0918L 20.4545 0.819081C 20.4545 0.602092 20.3683 0.393997 20.2149 0.240563C 20.0615 0.087129 19.8534 0.000920981 19.6364 0.000899286L 0.818189 0.000899286C 0.792635 -0.000299762 0.767039 -0.000299762 0.741485 0.000899286ZM 1.63637 1.63726L 18.8182 1.63726L 18.8182 31.0918L 14.7273 31.0918L 14.7273 23.7282C 14.7273 23.5112 14.641 23.3031 14.4876 23.1496C 14.3342 22.9962 14.1261 22.91 13.9091 22.91L 6.54546 22.91C 6.51991 22.9088 6.49431 22.9088 6.46876 22.91C 6.26532 22.9292 6.07643 23.0237 5.93921 23.1752C 5.802 23.3266 5.7264 23.5238 5.72728 23.7282L 5.72728 31.0918L 1.63637 31.0918L 1.63637 1.63726ZM 10.1378 4.07902C 9.93444 4.10137 9.74683 4.19908 9.61195 4.35289C 9.47707 4.5067 9.4047 4.70546 9.4091 4.90999L 9.4091 5.79209C 8.83173 5.87946 8.28011 6.06158 7.7983 6.36737C 7.09228 6.81548 6.54546 7.60647 6.54546 8.55345C 6.54546 9.52402 7.10142 10.2964 7.73438 10.7779C 8.36735 11.2593 9.09237 11.5493 9.71592 11.8006C 10.3243 12.0459 10.9253 12.3232 11.3139 12.6188C 11.7025 12.9144 11.8636 13.1348 11.8636 13.5392C 11.8636 13.9222 11.7188 14.1201 11.3651 14.3446C 11.0113 14.5691 10.4377 14.7282 9.81819 14.7282C 8.88784 14.7282 8.17245 14.3556 7.92614 14.1273C 7.76679 13.9781 7.55469 13.8984 7.33652 13.9056C 7.11835 13.9127 6.91197 14.0063 6.76279 14.1657C 6.61361 14.325 6.53384 14.5371 6.54103 14.7553C 6.54822 14.9735 6.64179 15.1798 6.80114 15.329C 7.30367 15.7947 8.05706 16.1618 9.00001 16.3006L 9.00001 17.1827C 8.99847 17.2911 9.0185 17.3988 9.05893 17.4994C 9.09936 17.6 9.15938 17.6916 9.23551 17.7688C 9.31164 17.846 9.40235 17.9073 9.50238 17.9492C 9.60241 17.991 9.70976 18.0125 9.81819 18.0125C 9.92662 18.0125 10.034 17.991 10.134 17.9492C 10.234 17.9073 10.3247 17.846 10.4009 17.7688C 10.477 17.6916 10.537 17.6 10.5774 17.4994C 10.6179 17.3988 10.6379 17.2911 10.6364 17.1827L 10.6364 16.3006C 11.2137 16.2132 11.7654 16.0311 12.2472 15.7253C 12.9532 15.2772 13.5 14.4862 13.5 13.5392C 13.5 12.5687 12.9441 11.7963 12.3111 11.3148C 11.6781 10.8334 10.9531 10.5435 10.3296 10.2921C 9.72118 10.0468 9.12014 9.76949 8.73154 9.47391C 8.34294 9.17833 8.18182 8.95786 8.18182 8.55345C 8.18182 8.17055 8.32668 7.97256 8.6804 7.74806C 9.03412 7.52356 9.60777 7.36453 10.2273 7.36453C 11.1576 7.36453 11.873 7.73714 12.1193 7.96539C 12.1982 8.03926 12.2909 8.09686 12.3921 8.13491C 12.4932 8.17296 12.6009 8.19071 12.7089 8.18715C 12.817 8.18359 12.9232 8.15878 13.0217 8.11415C 13.1201 8.06952 13.2088 8.00594 13.2827 7.92703C 13.3565 7.84813 13.4141 7.75545 13.4522 7.65428C 13.4902 7.55311 13.508 7.44544 13.5044 7.33742C 13.5009 7.22939 13.4761 7.12312 13.4314 7.02468C 13.3868 6.92624 13.3232 6.83755 13.2443 6.76368C 12.7418 6.298 11.9884 5.93089 11.0455 5.79209L 11.0455 4.90999C 11.0472 4.80039 11.0269 4.69157 10.9857 4.58997C 10.9445 4.48838 10.8834 4.39609 10.8059 4.31859C 10.7284 4.24108 10.6361 4.17994 10.5345 4.13878C 10.4329 4.09763 10.3241 4.07731 10.2145 4.07902C 10.1889 4.07782 10.1633 4.07782 10.1378 4.07902ZM 7.36364 24.5463L 13.0909 24.5463L 13.0909 31.0918L 7.36364 31.0918L 7.36364 24.5463Z" transform="translate(0.933594 0.051178)" fill="#119BDA"/>
</g>
</g>
</svg>

