<svg width="17" height="17" viewBox="0 0 17 17" fill="none" xmlns="http://www.w3.org/2000/svg">
<path fill-rule="evenodd" clip-rule="evenodd" d="M8.23301 11.7357C8.16634 11.7357 8.09967 11.6691 8.03301 11.6024L5.36634 8.93574C5.09967 8.66908 5.09967 8.26908 5.36634 8.00241C5.63301 7.73574 6.03301 7.73574 6.29967 8.00241L7.83301 9.53574V1.80241C7.83301 1.40241 8.09967 1.13574 8.49967 1.13574C8.89967 1.13574 9.16634 1.40241 9.16634 1.80241V9.53574L10.6997 8.00241C10.9663 7.73574 11.3663 7.73574 11.633 8.00241C11.8997 8.26908 11.8997 8.66908 11.633 8.93574L8.96634 11.6024C8.93301 11.6357 8.89967 11.6524 8.86634 11.6691C8.83301 11.6857 8.79967 11.7024 8.76634 11.7357C8.69967 11.8024 8.56634 11.8024 8.49967 11.8024C8.43301 11.8024 8.29967 11.8024 8.23301 11.7357ZM15.1663 13.8024V11.8024C15.1663 11.4024 14.8997 11.1357 14.4997 11.1357C14.0997 11.1357 13.833 11.4024 13.833 11.8024V13.8024C13.833 14.2024 13.5663 14.4691 13.1663 14.4691H3.83301C3.43301 14.4691 3.16634 14.2024 3.16634 13.8024V11.8024C3.16634 11.4024 2.89967 11.1357 2.49967 11.1357C2.09967 11.1357 1.83301 11.4024 1.83301 11.8024V13.8024C1.83301 14.9357 2.69967 15.8024 3.83301 15.8024H13.1663C14.2997 15.8024 15.1663 14.9357 15.1663 13.8024Z" fill="black"/>
<mask id="mask0" mask-type="alpha" maskUnits="userSpaceOnUse" x="1" y="1" width="15" height="15">
<path fill-rule="evenodd" clip-rule="evenodd" d="M8.23301 11.7357C8.16634 11.7357 8.09967 11.6691 8.03301 11.6024L5.36634 8.93574C5.09967 8.66908 5.09967 8.26908 5.36634 8.00241C5.63301 7.73574 6.03301 7.73574 6.29967 8.00241L7.83301 9.53574V1.80241C7.83301 1.40241 8.09967 1.13574 8.49967 1.13574C8.89967 1.13574 9.16634 1.40241 9.16634 1.80241V9.53574L10.6997 8.00241C10.9663 7.73574 11.3663 7.73574 11.633 8.00241C11.8997 8.26908 11.8997 8.66908 11.633 8.93574L8.96634 11.6024C8.93301 11.6357 8.89967 11.6524 8.86634 11.6691C8.83301 11.6857 8.79967 11.7024 8.76634 11.7357C8.69967 11.8024 8.56634 11.8024 8.49967 11.8024C8.43301 11.8024 8.29967 11.8024 8.23301 11.7357ZM15.1663 13.8024V11.8024C15.1663 11.4024 14.8997 11.1357 14.4997 11.1357C14.0997 11.1357 13.833 11.4024 13.833 11.8024V13.8024C13.833 14.2024 13.5663 14.4691 13.1663 14.4691H3.83301C3.43301 14.4691 3.16634 14.2024 3.16634 13.8024V11.8024C3.16634 11.4024 2.89967 11.1357 2.49967 11.1357C2.09967 11.1357 1.83301 11.4024 1.83301 11.8024V13.8024C1.83301 14.9357 2.69967 15.8024 3.83301 15.8024H13.1663C14.2997 15.8024 15.1663 14.9357 15.1663 13.8024Z" fill="white"/>
</mask>
<g mask="url(#mask0)">
<rect x="0.5" y="0.469116" width="16" height="16" fill="#028248"/>
</g>
</svg>
