<svg width="12" height="12" viewBox="0 0 12 12" fill="none" xmlns="http://www.w3.org/2000/svg">
<path fill-rule="evenodd" clip-rule="evenodd" d="M10.8 4.1084L6.3 0.612372C6.1 0.462543 5.85 0.462543 5.7 0.612372L1.2 4.1084C1.05 4.20829 1 4.35812 1 4.50795V10.0017C1 10.8507 1.65 11.5 2.5 11.5H9.5C10.35 11.5 11 10.8507 11 10.0017V4.50795C11 4.35812 10.95 4.20829 10.8 4.1084ZM7 6.50567V10.5011H5V6.50567H7ZM9.5 10.5011C9.8 10.5011 10 10.3013 10 10.0017V4.75765L6 1.66117L2 4.75765V10.0017C2 10.3013 2.2 10.5011 2.5 10.5011H4V6.00623C4 5.70657 4.2 5.5068 4.5 5.5068H7.5C7.8 5.5068 8 5.70657 8 6.00623V10.5011H9.5Z" fill="black"/>
<mask id="mask0" mask-type="alpha" maskUnits="userSpaceOnUse" x="1" y="0" width="10" height="12">
<path fill-rule="evenodd" clip-rule="evenodd" d="M10.8 4.1084L6.3 0.612372C6.1 0.462543 5.85 0.462543 5.7 0.612372L1.2 4.1084C1.05 4.20829 1 4.35812 1 4.50795V10.0017C1 10.8507 1.65 11.5 2.5 11.5H9.5C10.35 11.5 11 10.8507 11 10.0017V4.50795C11 4.35812 10.95 4.20829 10.8 4.1084ZM7 6.50567V10.5011H5V6.50567H7ZM9.5 10.5011C9.8 10.5011 10 10.3013 10 10.0017V4.75765L6 1.66117L2 4.75765V10.0017C2 10.3013 2.2 10.5011 2.5 10.5011H4V6.00623C4 5.70657 4.2 5.5068 4.5 5.5068H7.5C7.8 5.5068 8 5.70657 8 6.00623V10.5011H9.5Z" fill="white"/>
</mask>
<g mask="url(#mask0)">
<rect width="12" height="12" fill="#4F4F4F"/>
</g>
</svg>
