<svg width="28" height="28" viewBox="0 0 28 28" fill="none" xmlns="http://www.w3.org/2000/svg">
<path fill-rule="evenodd" clip-rule="evenodd" d="M23.3334 3.5H4.66675C2.68341 3.5 1.16675 5.01667 1.16675 7V21C1.16675 22.9833 2.68341 24.5 4.66675 24.5H23.3334C25.3167 24.5 26.8334 22.9833 26.8334 21V7C26.8334 5.01667 25.3167 3.5 23.3334 3.5ZM4.66676 5.83333H23.3334C23.8001 5.83333 24.1501 6.06667 24.3834 6.53333L14.0001 13.7667L3.61676 6.53333C3.8501 6.06667 4.2001 5.83333 4.66676 5.83333ZM3.50008 21C3.50008 21.7 3.96675 22.1667 4.66675 22.1667H23.3334C24.0334 22.1667 24.5001 21.7 24.5001 21V9.21667L14.7001 16.1C14.4667 16.2167 14.2334 16.3333 14.0001 16.3333C13.7667 16.3333 13.5334 16.2167 13.3001 16.1L3.50008 9.21667V21Z" fill="black"/>
<mask id="mask0" mask-type="alpha" maskUnits="userSpaceOnUse" x="1" y="3" width="26" height="22">
<path fill-rule="evenodd" clip-rule="evenodd" d="M23.3334 3.5H4.66675C2.68341 3.5 1.16675 5.01667 1.16675 7V21C1.16675 22.9833 2.68341 24.5 4.66675 24.5H23.3334C25.3167 24.5 26.8334 22.9833 26.8334 21V7C26.8334 5.01667 25.3167 3.5 23.3334 3.5ZM4.66676 5.83333H23.3334C23.8001 5.83333 24.1501 6.06667 24.3834 6.53333L14.0001 13.7667L3.61676 6.53333C3.8501 6.06667 4.2001 5.83333 4.66676 5.83333ZM3.50008 21C3.50008 21.7 3.96675 22.1667 4.66675 22.1667H23.3334C24.0334 22.1667 24.5001 21.7 24.5001 21V9.21667L14.7001 16.1C14.4667 16.2167 14.2334 16.3333 14.0001 16.3333C13.7667 16.3333 13.5334 16.2167 13.3001 16.1L3.50008 9.21667V21Z" fill="white"/>
</mask>
<g mask="url(#mask0)">
<rect width="28" height="28" fill="#347AF0"/>
</g>
</svg>
