<svg width="32" height="32" viewBox="0 0 32 32" fill="none" xmlns="http://www.w3.org/2000/svg">
<path fill-rule="evenodd" clip-rule="evenodd" d="M26 28H6V4H26V28ZM24 26V6H8V26H24ZM19.3333 21.3333V23.2H21.2V21.3333H19.3333ZM17.4667 21.3333H10V23.2H17.4667V21.3333ZM13.9208 16.3197C13.3509 16.3197 13.0878 16.0957 13.0878 15.6451V12.9171H13.9662V11.5701H13.0878V10.9711C13.0878 9.76951 12.351 9 11.041 9C10.8579 9 10.7707 9.00231 10.6488 9.01416L10.3477 9.04343V10.3344H10.8539C11.4577 10.3344 11.6148 10.4909 11.6148 10.9963V11.5701H10.3333V12.9171H11.6148V15.6451C11.6148 16.8961 12.505 17.6667 13.9208 17.6667C16.1691 17.6667 17.6667 15.8568 17.6667 13.6168C17.6667 12.3105 16.726 11.4189 15.3463 11.4189H14.9976L15.0133 11.7672C15.0189 11.8916 15.0342 12.1675 15.0332 12.1475C15.0378 12.2388 15.0403 12.3195 15.0418 12.4368L15.0459 12.7659H15.3751C15.9417 12.7659 16.1937 13.0478 16.1937 13.6168C16.1937 15.1634 15.2577 16.3197 13.9208 16.3197Z" fill="#297BFF"/>
</svg>
