<svg width="16" height="16" viewBox="0 0 16 16" fill="none" xmlns="http://www.w3.org/2000/svg">
<path fill-rule="evenodd" clip-rule="evenodd" d="M11.6837 10.5216H11.0717L10.8547 10.3125C11.6139 9.42931 12.071 8.28276 12.071 7.03551C12.071 4.25436 9.81666 2 7.03551 2C4.25436 2 2 4.25436 2 7.03551C2 9.81666 4.25436 12.071 7.03551 12.071C8.28276 12.071 9.42931 11.6139 10.3125 10.8547L10.5216 11.0717V11.6837L12.8457 14L14 12.8457L11.6837 10.5216ZM7.03602 10.7724C4.97843 10.7724 3.31749 9.11148 3.31749 7.0539C3.31749 4.99631 4.97843 3.33537 7.03602 3.33537C9.09361 3.33537 10.7545 4.99631 10.7545 7.0539C10.7545 9.11148 9.09361 10.7724 7.03602 10.7724Z" fill="#1D1D1D"/>
</svg>
