<?xml version="1.0" encoding="UTF-8"?>
<!-- Created with Inkscape (http://www.inkscape.org/) -->
<svg width="132" height="38" version="1.1" viewBox="0 0 34.925 10.054" xmlns="http://www.w3.org/2000/svg" xmlns:cc="http://creativecommons.org/ns#" xmlns:dc="http://purl.org/dc/elements/1.1/" xmlns:rdf="http://www.w3.org/1999/02/22-rdf-syntax-ns#">
 <metadata>
  <rdf:RDF>
   <cc:Work rdf:about="">
    <dc:format>image/svg+xml</dc:format>
    <dc:type rdf:resource="http://purl.org/dc/dcmitype/StillImage"/>
    <dc:title/>
   </cc:Work>
  </rdf:RDF>
 </metadata>
 <g transform="translate(-25.704 -183)">
  <g transform="matrix(.12914 0 0 .12914 29.529 165.13)">
   <path transform="matrix(.56591 0 0 .56591 114.07 61.4)" d="m-239.64 155.64c5.2595-5.1386 11.501-9.3176 18.383-11.906 6.8825-2.5881 14.412-3.556 21.682-2.4574 4.155 0.62781 8.264 1.9502 11.717 4.3445 3.4534 2.3942 6.2114 5.9299 7.1814 10.019 0.7254 3.0576 0.42989 6.3179-0.63419 9.2747-1.0641 2.9568-2.8749 5.6164-5.0858 7.8495-4.4218 4.4663-10.301 7.1742-16.203 9.3342-10.147 3.7134-21.196 6.0929-31.75 3.7798-2.392-0.52425-4.7496-1.293-6.8712-2.5159-2.1216-1.2228-4.0047-2.9201-5.2241-5.0437-1.0597-1.8454-1.5933-3.9734-1.6444-6.1008-0.0511-2.1274 0.37118-4.2538 1.1237-6.2443 1.505-3.9811 4.28-7.3591 7.3242-10.333z" fill="#0476d0"/>
   <path transform="matrix(.48956 .063683 -.072999 .56118 111.71 77.385)" d="m-207.89 197.97c2.5148 2.2836 4.4163 5.1966 5.7302 8.3291 1.314 3.1325 2.0548 6.4841 2.4387 9.8592 0.76776 6.7503 0.12748 13.571 0.14653 20.365 0.0113 4.0252 0.25408 8.0606-0.11208 12.069s-1.3842 8.0506-3.6677 11.365c-1.6832 2.4433-4.013 4.416-6.6358 5.803-2.6228 1.387-5.533 2.1976-8.4832 2.5124-3.2852 0.35062-6.6341 0.0917-9.8274-0.75597-6.6834-1.7741-12.597-6.1756-16.379-11.965-3.7815-5.7893-5.4341-12.901-4.7878-19.785 0.56873-6.0588 2.83-11.822 5.2917-17.387 2.473-5.591 5.2079-11.137 9.0714-15.875 2.0689-2.5371 4.4711-4.8391 7.288-6.507 2.817-1.668 6.0712-2.6801 9.3429-2.5644 3.9157 0.1385 7.6826 1.9017 10.583 4.5357z" fill="#024478"/>
   <path transform="matrix(.31792 0 0 .4785 65.255 80.484)" d="m-190.5 214.6c5.0343-4.7068 11.153-8.7064 18.014-9.3588 3.4305-0.32621 6.9778 0.22665 10.029 1.8278 3.0514 1.6011 5.5715 4.286 6.731 7.531 1.1022 3.0847 0.93776 6.558-0.21873 9.6228-1.1565 3.0648-3.2641 5.7264-5.8289 7.7641-3.8958 3.0951-8.8598 4.7745-13.835 4.8514-4.9751 0.077-9.9389-1.4221-14.135-4.0955-1.5003-0.95577-2.92-2.0713-4.0284-3.4627-1.1084-1.3914-1.894-3.0783-2.0192-4.8528-0.13547-1.9209 0.50828-3.8374 1.517-5.4776 1.0087-1.6403 2.368-3.0346 3.7746-4.3498z" fill="#4eb191"/>
  </g>
  <g transform="matrix(.35675 0 0 .35675 18.268 122.93)" fill="#0476d0" stroke="#0476d0" stroke-width=".708" aria-label="fynance">
   <path d="m43.698 172.29c-1.3987 0-2.2978 0.59943-2.8723 1.3737-0.69934 0.94911-0.69934 2.0231-0.69934 3.5217v11.889h1.7484v-10.39h2.9972v-1.5486h-2.9972c0-1.2738 0-1.9981 0.37465-2.5226 0.3247-0.44958 0.79925-0.67437 1.4486-0.67437 0.4246 0 0.92414 0.0999 1.5236 0.24977l0.39963-1.5985c-0.59944-0.14985-1.2239-0.29971-1.9232-0.29971z"/>
   <path d="m47.416 177.14 2.5226 8.4171c0.54948 1.7983 0.64939 2.2479 1.024 2.7474 0.34967 0.44958 0.92414 0.77428 1.6235 0.87418-0.34967 1.6235-0.49953 2.1979-0.8492 2.5476-0.27474 0.27474-0.59944 0.4246-1.074 0.4246-0.37465 0-0.7493-0.0749-1.1489-0.22479l-0.52451 1.5486c0.54948 0.19981 1.1239 0.32469 1.6734 0.32469 1.049 0 1.8982-0.47455 2.4227-1.074 0.54948-0.62442 0.7493-1.3987 1.024-2.6225l2.8723-12.963h-1.7983l-2.2479 10.415c-0.24977-0.025-0.49953-0.0749-0.64939-0.29972-0.14986-0.22479-0.3247-0.77427-0.69934-2.0731l-2.3478-8.0425z"/>
   <path d="m63.959 176.99c-1.5236 0-2.5976 0.64939-3.197 1.2738-1.1739 1.2239-1.1739 2.6725-1.1739 4.4209v6.394h1.7484v-6.394c0-1.5486 0-2.5976 0.72432-3.3219 0.4246-0.42461 1.074-0.72433 1.8982-0.72433s1.4736 0.29972 1.8982 0.72433c0.72432 0.72432 0.72432 1.7733 0.72432 3.3219v6.394h1.7484v-6.394c0-1.7484 0-3.197-1.1739-4.4209-0.59944-0.62441-1.6734-1.2738-3.197-1.2738z"/>
   <path d="m80.639 184.08v-1.8483c0-1.3238 0-2.7974-0.99906-3.9213-0.7493-0.84921-1.8732-1.3238-3.3718-1.3238-1.3487 0-2.6225 0.29972-3.7964 0.72432l0.54948 1.5735c1.049-0.39963 2.148-0.6494 3.247-0.6494 0.94911 0 1.5985 0.24977 2.0231 0.72433 0.59944 0.67436 0.59944 1.6734 0.59944 2.4477h-2.0481c-0.97409 0-2.3728 0-3.5467 0.84921-0.79925 0.57446-1.4736 1.5486-1.4736 2.8723 0 1.2988 0.67437 2.2978 1.4986 2.8723 0.79925 0.57446 1.8233 0.82422 3.0222 0.82422 1.4986 0 2.6725-0.4246 3.4218-1.2988 0.87418-1.024 0.87418-2.173 0.87418-3.8464zm-1.7484 0c0 1.4736 0 2.2479-0.47456 2.7974-0.4246 0.49954-1.1489 0.69935-2.0731 0.69935-0.79925 0-1.4986-0.14986-1.9732-0.47456-0.44958-0.32469-0.79925-0.87418-0.79925-1.5735 0-0.77428 0.37465-1.3487 0.82423-1.6734 0.69934-0.49953 1.5985-0.49953 2.4477-0.49953h2.0481z"/>
   <path d="m88.842 176.99c-1.5236 0-2.5976 0.64939-3.197 1.2738-1.1739 1.2239-1.1739 2.6725-1.1739 4.4209v6.394h1.7484v-6.394c0-1.5486 0-2.5976 0.72432-3.3219 0.4246-0.42461 1.074-0.72433 1.8982-0.72433s1.4736 0.29972 1.8982 0.72433c0.72432 0.72432 0.72432 1.7733 0.72432 3.3219v6.394h1.7484v-6.394c0-1.7484 0-3.197-1.1739-4.4209-0.59944-0.62441-1.6734-1.2738-3.197-1.2738z"/>
   <path d="m104.4 186.75c-0.79925 0.54949-1.7484 0.82423-2.6975 0.82423-0.97409 0-1.7234-0.3247-2.1979-0.87418-0.79925-0.92414-0.79925-2.4227-0.79925-3.6965 0-1.099 0-2.5726 0.77428-3.4718 0.59944-0.69934 1.4486-0.89916 2.2229-0.89916 0.89916 0 1.8233 0.27475 2.5726 0.7493l0.84921-1.4237c-1.024-0.6494-2.2229-0.97409-3.4218-0.97409-1.5985 0-2.7974 0.59944-3.5717 1.4986-1.1739 1.3487-1.1739 3.222-1.1739 4.5208 0 1.4736 0 3.3968 1.1989 4.7456 0.77428 0.87418 1.9482 1.4736 3.5467 1.4736 1.2738 0 2.5476-0.37464 3.5966-1.074z"/>
   <path d="m110.62 186.53c-0.57446-0.77427-0.57446-2.2479-0.57446-2.8973h2.2978c1.7733 0 2.8473 0 3.8964-0.74929 0.69934-0.49954 1.2488-1.3487 1.2488-2.4477-0.025-0.97409-0.49953-1.8982-1.2488-2.5226-0.7493-0.59944-1.7484-0.92413-2.9972-0.92413-1.7733 0-3.2719 0.64939-4.0712 1.7733-0.89916 1.2488-0.89916 2.3978-0.89916 4.3459 0 1.6235 0 3.1221 0.94911 4.4209 0.79925 1.074 2.173 1.6984 3.8964 1.6984 1.2988 0 2.5976-0.27474 3.7715-0.87418l-0.72432-1.4986c-0.89916 0.47455-1.9732 0.72432-3.0472 0.72432-1.1989 0-1.9981-0.37465-2.4977-1.049zm5.1202-6.0943c0 0.57446-0.27475 0.99906-0.59944 1.2488-0.52451 0.39963-1.2239 0.39963-2.7974 0.39963h-2.2978c0-0.49954 0-1.7484 0.62441-2.4727 0.54949-0.64939 1.4486-0.97409 2.5726-0.97409 0.77428 0 1.4237 0.17484 1.8483 0.52451 0.37465 0.29972 0.62442 0.79925 0.6494 1.2738z"/>
  </g>
 </g>
</svg>
